<?xml version="1.0" encoding="utf-8" standalone="no"?>
<!DOCTYPE svg PUBLIC "-//W3C//DTD SVG 1.1//EN"
  "http://www.w3.org/Graphics/SVG/1.1/DTD/svg11.dtd">
<!-- Created with matplotlib (https://matplotlib.org/) -->
<svg height="288pt" version="1.1" viewBox="0 0 432 288" width="432pt" xmlns="http://www.w3.org/2000/svg" xmlns:xlink="http://www.w3.org/1999/xlink">
 <defs>
  <style type="text/css">
*{stroke-linecap:butt;stroke-linejoin:round;}
  </style>
 </defs>
 <g id="figure_1">
  <g id="patch_1">
   <path d="M 0 288 
L 432 288 
L 432 0 
L 0 0 
z
" style="fill:#ffffff;"/>
  </g>
  <g id="axes_1">
   <g id="patch_2">
    <path d="M 54 252 
L 388.8 252 
L 388.8 34.56 
L 54 34.56 
z
" style="fill:#ffffff;"/>
   </g>
   <g id="matplotlib.axis_1">
    <g id="xtick_1">
     <g id="line2d_1">
      <defs>
       <path d="M 0 0 
L 0 3.5 
" id="m1ff4855754" style="stroke:#000000;stroke-width:0.8;"/>
      </defs>
      <g>
       <use style="stroke:#000000;stroke-width:0.8;" x="69.218182" xlink:href="#m1ff4855754" y="252"/>
      </g>
     </g>
     <g id="text_1">
      <!-- Initial -->
      <defs>
       <path d="M 9.8125 72.90625 
L 19.671875 72.90625 
L 19.671875 0 
L 9.8125 0 
z
" id="DejaVuSans-73"/>
       <path d="M 54.890625 33.015625 
L 54.890625 0 
L 45.90625 0 
L 45.90625 32.71875 
Q 45.90625 40.484375 42.875 44.328125 
Q 39.84375 48.1875 33.796875 48.1875 
Q 26.515625 48.1875 22.3125 43.546875 
Q 18.109375 38.921875 18.109375 30.90625 
L 18.109375 0 
L 9.078125 0 
L 9.078125 54.6875 
L 18.109375 54.6875 
L 18.109375 46.1875 
Q 21.34375 51.125 25.703125 53.5625 
Q 30.078125 56 35.796875 56 
Q 45.21875 56 50.046875 50.171875 
Q 54.890625 44.34375 54.890625 33.015625 
z
" id="DejaVuSans-110"/>
       <path d="M 9.421875 54.6875 
L 18.40625 54.6875 
L 18.40625 0 
L 9.421875 0 
z
M 9.421875 75.984375 
L 18.40625 75.984375 
L 18.40625 64.59375 
L 9.421875 64.59375 
z
" id="DejaVuSans-105"/>
       <path d="M 18.3125 70.21875 
L 18.3125 54.6875 
L 36.8125 54.6875 
L 36.8125 47.703125 
L 18.3125 47.703125 
L 18.3125 18.015625 
Q 18.3125 11.328125 20.140625 9.421875 
Q 21.96875 7.515625 27.59375 7.515625 
L 36.8125 7.515625 
L 36.8125 0 
L 27.59375 0 
Q 17.1875 0 13.234375 3.875 
Q 9.28125 7.765625 9.28125 18.015625 
L 9.28125 47.703125 
L 2.6875 47.703125 
L 2.6875 54.6875 
L 9.28125 54.6875 
L 9.28125 70.21875 
z
" id="DejaVuSans-116"/>
       <path d="M 34.28125 27.484375 
Q 23.390625 27.484375 19.1875 25 
Q 14.984375 22.515625 14.984375 16.5 
Q 14.984375 11.71875 18.140625 8.90625 
Q 21.296875 6.109375 26.703125 6.109375 
Q 34.1875 6.109375 38.703125 11.40625 
Q 43.21875 16.703125 43.21875 25.484375 
L 43.21875 27.484375 
z
M 52.203125 31.203125 
L 52.203125 0 
L 43.21875 0 
L 43.21875 8.296875 
Q 40.140625 3.328125 35.546875 0.953125 
Q 30.953125 -1.421875 24.3125 -1.421875 
Q 15.921875 -1.421875 10.953125 3.296875 
Q 6 8.015625 6 15.921875 
Q 6 25.140625 12.171875 29.828125 
Q 18.359375 34.515625 30.609375 34.515625 
L 43.21875 34.515625 
L 43.21875 35.40625 
Q 43.21875 41.609375 39.140625 45 
Q 35.0625 48.390625 27.6875 48.390625 
Q 23 48.390625 18.546875 47.265625 
Q 14.109375 46.140625 10.015625 43.890625 
L 10.015625 52.203125 
Q 14.9375 54.109375 19.578125 55.046875 
Q 24.21875 56 28.609375 56 
Q 40.484375 56 46.34375 49.84375 
Q 52.203125 43.703125 52.203125 31.203125 
z
" id="DejaVuSans-97"/>
       <path d="M 9.421875 75.984375 
L 18.40625 75.984375 
L 18.40625 0 
L 9.421875 0 
z
" id="DejaVuSans-108"/>
      </defs>
      <g transform="translate(55.383026 266.598437)scale(0.1 -0.1)">
       <use xlink:href="#DejaVuSans-73"/>
       <use x="29.492188" xlink:href="#DejaVuSans-110"/>
       <use x="92.871094" xlink:href="#DejaVuSans-105"/>
       <use x="120.654297" xlink:href="#DejaVuSans-116"/>
       <use x="159.863281" xlink:href="#DejaVuSans-105"/>
       <use x="187.646484" xlink:href="#DejaVuSans-97"/>
       <use x="248.925781" xlink:href="#DejaVuSans-108"/>
      </g>
     </g>
    </g>
    <g id="xtick_2">
     <g id="line2d_2">
      <g>
       <use style="stroke:#000000;stroke-width:0.8;" x="170.672727" xlink:href="#m1ff4855754" y="252"/>
      </g>
     </g>
     <g id="text_2">
      <!-- 7 -->
      <defs>
       <path d="M 8.203125 72.90625 
L 55.078125 72.90625 
L 55.078125 68.703125 
L 28.609375 0 
L 18.3125 0 
L 43.21875 64.59375 
L 8.203125 64.59375 
z
" id="DejaVuSans-55"/>
      </defs>
      <g transform="translate(167.491477 266.598437)scale(0.1 -0.1)">
       <use xlink:href="#DejaVuSans-55"/>
      </g>
     </g>
    </g>
    <g id="xtick_3">
     <g id="line2d_3">
      <g>
       <use style="stroke:#000000;stroke-width:0.8;" x="272.127273" xlink:href="#m1ff4855754" y="252"/>
      </g>
     </g>
     <g id="text_3">
      <!-- 14 -->
      <defs>
       <path d="M 12.40625 8.296875 
L 28.515625 8.296875 
L 28.515625 63.921875 
L 10.984375 60.40625 
L 10.984375 69.390625 
L 28.421875 72.90625 
L 38.28125 72.90625 
L 38.28125 8.296875 
L 54.390625 8.296875 
L 54.390625 0 
L 12.40625 0 
z
" id="DejaVuSans-49"/>
       <path d="M 37.796875 64.3125 
L 12.890625 25.390625 
L 37.796875 25.390625 
z
M 35.203125 72.90625 
L 47.609375 72.90625 
L 47.609375 25.390625 
L 58.015625 25.390625 
L 58.015625 17.1875 
L 47.609375 17.1875 
L 47.609375 0 
L 37.796875 0 
L 37.796875 17.1875 
L 4.890625 17.1875 
L 4.890625 26.703125 
z
" id="DejaVuSans-52"/>
      </defs>
      <g transform="translate(265.764773 266.598437)scale(0.1 -0.1)">
       <use xlink:href="#DejaVuSans-49"/>
       <use x="63.623047" xlink:href="#DejaVuSans-52"/>
      </g>
     </g>
    </g>
    <g id="xtick_4">
     <g id="line2d_4">
      <g>
       <use style="stroke:#000000;stroke-width:0.8;" x="373.581818" xlink:href="#m1ff4855754" y="252"/>
      </g>
     </g>
     <g id="text_4">
      <!-- 21 -->
      <defs>
       <path d="M 19.1875 8.296875 
L 53.609375 8.296875 
L 53.609375 0 
L 7.328125 0 
L 7.328125 8.296875 
Q 12.9375 14.109375 22.625 23.890625 
Q 32.328125 33.6875 34.8125 36.53125 
Q 39.546875 41.84375 41.421875 45.53125 
Q 43.3125 49.21875 43.3125 52.78125 
Q 43.3125 58.59375 39.234375 62.25 
Q 35.15625 65.921875 28.609375 65.921875 
Q 23.96875 65.921875 18.8125 64.3125 
Q 13.671875 62.703125 7.8125 59.421875 
L 7.8125 69.390625 
Q 13.765625 71.78125 18.9375 73 
Q 24.125 74.21875 28.421875 74.21875 
Q 39.75 74.21875 46.484375 68.546875 
Q 53.21875 62.890625 53.21875 53.421875 
Q 53.21875 48.921875 51.53125 44.890625 
Q 49.859375 40.875 45.40625 35.40625 
Q 44.1875 33.984375 37.640625 27.21875 
Q 31.109375 20.453125 19.1875 8.296875 
z
" id="DejaVuSans-50"/>
      </defs>
      <g transform="translate(367.219318 266.598437)scale(0.1 -0.1)">
       <use xlink:href="#DejaVuSans-50"/>
       <use x="63.623047" xlink:href="#DejaVuSans-49"/>
      </g>
     </g>
    </g>
    <g id="text_5">
     <!-- Day of the experiment -->
     <defs>
      <path d="M 19.671875 64.796875 
L 19.671875 8.109375 
L 31.59375 8.109375 
Q 46.6875 8.109375 53.6875 14.9375 
Q 60.6875 21.78125 60.6875 36.53125 
Q 60.6875 51.171875 53.6875 57.984375 
Q 46.6875 64.796875 31.59375 64.796875 
z
M 9.8125 72.90625 
L 30.078125 72.90625 
Q 51.265625 72.90625 61.171875 64.09375 
Q 71.09375 55.28125 71.09375 36.53125 
Q 71.09375 17.671875 61.125 8.828125 
Q 51.171875 0 30.078125 0 
L 9.8125 0 
z
" id="DejaVuSans-68"/>
      <path d="M 32.171875 -5.078125 
Q 28.375 -14.84375 24.75 -17.8125 
Q 21.140625 -20.796875 15.09375 -20.796875 
L 7.90625 -20.796875 
L 7.90625 -13.28125 
L 13.1875 -13.28125 
Q 16.890625 -13.28125 18.9375 -11.515625 
Q 21 -9.765625 23.484375 -3.21875 
L 25.09375 0.875 
L 2.984375 54.6875 
L 12.5 54.6875 
L 29.59375 11.921875 
L 46.6875 54.6875 
L 56.203125 54.6875 
z
" id="DejaVuSans-121"/>
      <path id="DejaVuSans-32"/>
      <path d="M 30.609375 48.390625 
Q 23.390625 48.390625 19.1875 42.75 
Q 14.984375 37.109375 14.984375 27.296875 
Q 14.984375 17.484375 19.15625 11.84375 
Q 23.34375 6.203125 30.609375 6.203125 
Q 37.796875 6.203125 41.984375 11.859375 
Q 46.1875 17.53125 46.1875 27.296875 
Q 46.1875 37.015625 41.984375 42.703125 
Q 37.796875 48.390625 30.609375 48.390625 
z
M 30.609375 56 
Q 42.328125 56 49.015625 48.375 
Q 55.71875 40.765625 55.71875 27.296875 
Q 55.71875 13.875 49.015625 6.21875 
Q 42.328125 -1.421875 30.609375 -1.421875 
Q 18.84375 -1.421875 12.171875 6.21875 
Q 5.515625 13.875 5.515625 27.296875 
Q 5.515625 40.765625 12.171875 48.375 
Q 18.84375 56 30.609375 56 
z
" id="DejaVuSans-111"/>
      <path d="M 37.109375 75.984375 
L 37.109375 68.5 
L 28.515625 68.5 
Q 23.6875 68.5 21.796875 66.546875 
Q 19.921875 64.59375 19.921875 59.515625 
L 19.921875 54.6875 
L 34.71875 54.6875 
L 34.71875 47.703125 
L 19.921875 47.703125 
L 19.921875 0 
L 10.890625 0 
L 10.890625 47.703125 
L 2.296875 47.703125 
L 2.296875 54.6875 
L 10.890625 54.6875 
L 10.890625 58.5 
Q 10.890625 67.625 15.140625 71.796875 
Q 19.390625 75.984375 28.609375 75.984375 
z
" id="DejaVuSans-102"/>
      <path d="M 54.890625 33.015625 
L 54.890625 0 
L 45.90625 0 
L 45.90625 32.71875 
Q 45.90625 40.484375 42.875 44.328125 
Q 39.84375 48.1875 33.796875 48.1875 
Q 26.515625 48.1875 22.3125 43.546875 
Q 18.109375 38.921875 18.109375 30.90625 
L 18.109375 0 
L 9.078125 0 
L 9.078125 75.984375 
L 18.109375 75.984375 
L 18.109375 46.1875 
Q 21.34375 51.125 25.703125 53.5625 
Q 30.078125 56 35.796875 56 
Q 45.21875 56 50.046875 50.171875 
Q 54.890625 44.34375 54.890625 33.015625 
z
" id="DejaVuSans-104"/>
      <path d="M 56.203125 29.59375 
L 56.203125 25.203125 
L 14.890625 25.203125 
Q 15.484375 15.921875 20.484375 11.0625 
Q 25.484375 6.203125 34.421875 6.203125 
Q 39.59375 6.203125 44.453125 7.46875 
Q 49.3125 8.734375 54.109375 11.28125 
L 54.109375 2.78125 
Q 49.265625 0.734375 44.1875 -0.34375 
Q 39.109375 -1.421875 33.890625 -1.421875 
Q 20.796875 -1.421875 13.15625 6.1875 
Q 5.515625 13.8125 5.515625 26.8125 
Q 5.515625 40.234375 12.765625 48.109375 
Q 20.015625 56 32.328125 56 
Q 43.359375 56 49.78125 48.890625 
Q 56.203125 41.796875 56.203125 29.59375 
z
M 47.21875 32.234375 
Q 47.125 39.59375 43.09375 43.984375 
Q 39.0625 48.390625 32.421875 48.390625 
Q 24.90625 48.390625 20.390625 44.140625 
Q 15.875 39.890625 15.1875 32.171875 
z
" id="DejaVuSans-101"/>
      <path d="M 54.890625 54.6875 
L 35.109375 28.078125 
L 55.90625 0 
L 45.3125 0 
L 29.390625 21.484375 
L 13.484375 0 
L 2.875 0 
L 24.125 28.609375 
L 4.6875 54.6875 
L 15.28125 54.6875 
L 29.78125 35.203125 
L 44.28125 54.6875 
z
" id="DejaVuSans-120"/>
      <path d="M 18.109375 8.203125 
L 18.109375 -20.796875 
L 9.078125 -20.796875 
L 9.078125 54.6875 
L 18.109375 54.6875 
L 18.109375 46.390625 
Q 20.953125 51.265625 25.265625 53.625 
Q 29.59375 56 35.59375 56 
Q 45.5625 56 51.78125 48.09375 
Q 58.015625 40.1875 58.015625 27.296875 
Q 58.015625 14.40625 51.78125 6.484375 
Q 45.5625 -1.421875 35.59375 -1.421875 
Q 29.59375 -1.421875 25.265625 0.953125 
Q 20.953125 3.328125 18.109375 8.203125 
z
M 48.6875 27.296875 
Q 48.6875 37.203125 44.609375 42.84375 
Q 40.53125 48.484375 33.40625 48.484375 
Q 26.265625 48.484375 22.1875 42.84375 
Q 18.109375 37.203125 18.109375 27.296875 
Q 18.109375 17.390625 22.1875 11.75 
Q 26.265625 6.109375 33.40625 6.109375 
Q 40.53125 6.109375 44.609375 11.75 
Q 48.6875 17.390625 48.6875 27.296875 
z
" id="DejaVuSans-112"/>
      <path d="M 41.109375 46.296875 
Q 39.59375 47.171875 37.8125 47.578125 
Q 36.03125 48 33.890625 48 
Q 26.265625 48 22.1875 43.046875 
Q 18.109375 38.09375 18.109375 28.8125 
L 18.109375 0 
L 9.078125 0 
L 9.078125 54.6875 
L 18.109375 54.6875 
L 18.109375 46.1875 
Q 20.953125 51.171875 25.484375 53.578125 
Q 30.03125 56 36.53125 56 
Q 37.453125 56 38.578125 55.875 
Q 39.703125 55.765625 41.0625 55.515625 
z
" id="DejaVuSans-114"/>
      <path d="M 52 44.1875 
Q 55.375 50.25 60.0625 53.125 
Q 64.75 56 71.09375 56 
Q 79.640625 56 84.28125 50.015625 
Q 88.921875 44.046875 88.921875 33.015625 
L 88.921875 0 
L 79.890625 0 
L 79.890625 32.71875 
Q 79.890625 40.578125 77.09375 44.375 
Q 74.3125 48.1875 68.609375 48.1875 
Q 61.625 48.1875 57.5625 43.546875 
Q 53.515625 38.921875 53.515625 30.90625 
L 53.515625 0 
L 44.484375 0 
L 44.484375 32.71875 
Q 44.484375 40.625 41.703125 44.40625 
Q 38.921875 48.1875 33.109375 48.1875 
Q 26.21875 48.1875 22.15625 43.53125 
Q 18.109375 38.875 18.109375 30.90625 
L 18.109375 0 
L 9.078125 0 
L 9.078125 54.6875 
L 18.109375 54.6875 
L 18.109375 46.1875 
Q 21.1875 51.21875 25.484375 53.609375 
Q 29.78125 56 35.6875 56 
Q 41.65625 56 45.828125 52.96875 
Q 50 49.953125 52 44.1875 
z
" id="DejaVuSans-109"/>
     </defs>
     <g transform="translate(165.014844 280.276563)scale(0.1 -0.1)">
      <use xlink:href="#DejaVuSans-68"/>
      <use x="77.001953" xlink:href="#DejaVuSans-97"/>
      <use x="138.28125" xlink:href="#DejaVuSans-121"/>
      <use x="197.460938" xlink:href="#DejaVuSans-32"/>
      <use x="229.248047" xlink:href="#DejaVuSans-111"/>
      <use x="290.429688" xlink:href="#DejaVuSans-102"/>
      <use x="325.634766" xlink:href="#DejaVuSans-32"/>
      <use x="357.421875" xlink:href="#DejaVuSans-116"/>
      <use x="396.630859" xlink:href="#DejaVuSans-104"/>
      <use x="460.009766" xlink:href="#DejaVuSans-101"/>
      <use x="521.533203" xlink:href="#DejaVuSans-32"/>
      <use x="553.320312" xlink:href="#DejaVuSans-101"/>
      <use x="613.09375" xlink:href="#DejaVuSans-120"/>
      <use x="672.273438" xlink:href="#DejaVuSans-112"/>
      <use x="735.75" xlink:href="#DejaVuSans-101"/>
      <use x="797.273438" xlink:href="#DejaVuSans-114"/>
      <use x="838.386719" xlink:href="#DejaVuSans-105"/>
      <use x="866.169922" xlink:href="#DejaVuSans-109"/>
      <use x="963.582031" xlink:href="#DejaVuSans-101"/>
      <use x="1025.105469" xlink:href="#DejaVuSans-110"/>
      <use x="1088.484375" xlink:href="#DejaVuSans-116"/>
     </g>
    </g>
   </g>
   <g id="matplotlib.axis_2">
    <g id="ytick_1">
     <g id="line2d_5">
      <defs>
       <path d="M 0 0 
L -3.5 0 
" id="mf6fca5fdc0" style="stroke:#000000;stroke-width:0.8;"/>
      </defs>
      <g>
       <use style="stroke:#000000;stroke-width:0.8;" x="54" xlink:href="#mf6fca5fdc0" y="252"/>
      </g>
     </g>
     <g id="text_6">
      <!-- 0 -->
      <defs>
       <path d="M 31.78125 66.40625 
Q 24.171875 66.40625 20.328125 58.90625 
Q 16.5 51.421875 16.5 36.375 
Q 16.5 21.390625 20.328125 13.890625 
Q 24.171875 6.390625 31.78125 6.390625 
Q 39.453125 6.390625 43.28125 13.890625 
Q 47.125 21.390625 47.125 36.375 
Q 47.125 51.421875 43.28125 58.90625 
Q 39.453125 66.40625 31.78125 66.40625 
z
M 31.78125 74.21875 
Q 44.046875 74.21875 50.515625 64.515625 
Q 56.984375 54.828125 56.984375 36.375 
Q 56.984375 17.96875 50.515625 8.265625 
Q 44.046875 -1.421875 31.78125 -1.421875 
Q 19.53125 -1.421875 13.0625 8.265625 
Q 6.59375 17.96875 6.59375 36.375 
Q 6.59375 54.828125 13.0625 64.515625 
Q 19.53125 74.21875 31.78125 74.21875 
z
" id="DejaVuSans-48"/>
      </defs>
      <g transform="translate(40.6375 255.799219)scale(0.1 -0.1)">
       <use xlink:href="#DejaVuSans-48"/>
      </g>
     </g>
    </g>
    <g id="ytick_2">
     <g id="line2d_6">
      <g>
       <use style="stroke:#000000;stroke-width:0.8;" x="54" xlink:href="#mf6fca5fdc0" y="217.2096"/>
      </g>
     </g>
     <g id="text_7">
      <!-- 2 -->
      <g transform="translate(40.6375 221.008819)scale(0.1 -0.1)">
       <use xlink:href="#DejaVuSans-50"/>
      </g>
     </g>
    </g>
    <g id="ytick_3">
     <g id="line2d_7">
      <g>
       <use style="stroke:#000000;stroke-width:0.8;" x="54" xlink:href="#mf6fca5fdc0" y="182.4192"/>
      </g>
     </g>
     <g id="text_8">
      <!-- 4 -->
      <g transform="translate(40.6375 186.218419)scale(0.1 -0.1)">
       <use xlink:href="#DejaVuSans-52"/>
      </g>
     </g>
    </g>
    <g id="ytick_4">
     <g id="line2d_8">
      <g>
       <use style="stroke:#000000;stroke-width:0.8;" x="54" xlink:href="#mf6fca5fdc0" y="147.6288"/>
      </g>
     </g>
     <g id="text_9">
      <!-- 6 -->
      <defs>
       <path d="M 33.015625 40.375 
Q 26.375 40.375 22.484375 35.828125 
Q 18.609375 31.296875 18.609375 23.390625 
Q 18.609375 15.53125 22.484375 10.953125 
Q 26.375 6.390625 33.015625 6.390625 
Q 39.65625 6.390625 43.53125 10.953125 
Q 47.40625 15.53125 47.40625 23.390625 
Q 47.40625 31.296875 43.53125 35.828125 
Q 39.65625 40.375 33.015625 40.375 
z
M 52.59375 71.296875 
L 52.59375 62.3125 
Q 48.875 64.0625 45.09375 64.984375 
Q 41.3125 65.921875 37.59375 65.921875 
Q 27.828125 65.921875 22.671875 59.328125 
Q 17.53125 52.734375 16.796875 39.40625 
Q 19.671875 43.65625 24.015625 45.921875 
Q 28.375 48.1875 33.59375 48.1875 
Q 44.578125 48.1875 50.953125 41.515625 
Q 57.328125 34.859375 57.328125 23.390625 
Q 57.328125 12.15625 50.6875 5.359375 
Q 44.046875 -1.421875 33.015625 -1.421875 
Q 20.359375 -1.421875 13.671875 8.265625 
Q 6.984375 17.96875 6.984375 36.375 
Q 6.984375 53.65625 15.1875 63.9375 
Q 23.390625 74.21875 37.203125 74.21875 
Q 40.921875 74.21875 44.703125 73.484375 
Q 48.484375 72.75 52.59375 71.296875 
z
" id="DejaVuSans-54"/>
      </defs>
      <g transform="translate(40.6375 151.428019)scale(0.1 -0.1)">
       <use xlink:href="#DejaVuSans-54"/>
      </g>
     </g>
    </g>
    <g id="ytick_5">
     <g id="line2d_9">
      <g>
       <use style="stroke:#000000;stroke-width:0.8;" x="54" xlink:href="#mf6fca5fdc0" y="112.8384"/>
      </g>
     </g>
     <g id="text_10">
      <!-- 8 -->
      <defs>
       <path d="M 31.78125 34.625 
Q 24.75 34.625 20.71875 30.859375 
Q 16.703125 27.09375 16.703125 20.515625 
Q 16.703125 13.921875 20.71875 10.15625 
Q 24.75 6.390625 31.78125 6.390625 
Q 38.8125 6.390625 42.859375 10.171875 
Q 46.921875 13.96875 46.921875 20.515625 
Q 46.921875 27.09375 42.890625 30.859375 
Q 38.875 34.625 31.78125 34.625 
z
M 21.921875 38.8125 
Q 15.578125 40.375 12.03125 44.71875 
Q 8.5 49.078125 8.5 55.328125 
Q 8.5 64.0625 14.71875 69.140625 
Q 20.953125 74.21875 31.78125 74.21875 
Q 42.671875 74.21875 48.875 69.140625 
Q 55.078125 64.0625 55.078125 55.328125 
Q 55.078125 49.078125 51.53125 44.71875 
Q 48 40.375 41.703125 38.8125 
Q 48.828125 37.15625 52.796875 32.3125 
Q 56.78125 27.484375 56.78125 20.515625 
Q 56.78125 9.90625 50.3125 4.234375 
Q 43.84375 -1.421875 31.78125 -1.421875 
Q 19.734375 -1.421875 13.25 4.234375 
Q 6.78125 9.90625 6.78125 20.515625 
Q 6.78125 27.484375 10.78125 32.3125 
Q 14.796875 37.15625 21.921875 38.8125 
z
M 18.3125 54.390625 
Q 18.3125 48.734375 21.84375 45.5625 
Q 25.390625 42.390625 31.78125 42.390625 
Q 38.140625 42.390625 41.71875 45.5625 
Q 45.3125 48.734375 45.3125 54.390625 
Q 45.3125 60.0625 41.71875 63.234375 
Q 38.140625 66.40625 31.78125 66.40625 
Q 25.390625 66.40625 21.84375 63.234375 
Q 18.3125 60.0625 18.3125 54.390625 
z
" id="DejaVuSans-56"/>
      </defs>
      <g transform="translate(40.6375 116.637619)scale(0.1 -0.1)">
       <use xlink:href="#DejaVuSans-56"/>
      </g>
     </g>
    </g>
    <g id="ytick_6">
     <g id="line2d_10">
      <g>
       <use style="stroke:#000000;stroke-width:0.8;" x="54" xlink:href="#mf6fca5fdc0" y="78.048"/>
      </g>
     </g>
     <g id="text_11">
      <!-- 10 -->
      <g transform="translate(34.275 81.847219)scale(0.1 -0.1)">
       <use xlink:href="#DejaVuSans-49"/>
       <use x="63.623047" xlink:href="#DejaVuSans-48"/>
      </g>
     </g>
    </g>
    <g id="ytick_7">
     <g id="line2d_11">
      <g>
       <use style="stroke:#000000;stroke-width:0.8;" x="54" xlink:href="#mf6fca5fdc0" y="43.2576"/>
      </g>
     </g>
     <g id="text_12">
      <!-- 12 -->
      <g transform="translate(34.275 47.056819)scale(0.1 -0.1)">
       <use xlink:href="#DejaVuSans-49"/>
       <use x="63.623047" xlink:href="#DejaVuSans-50"/>
      </g>
     </g>
    </g>
    <g id="text_13">
     <!-- nmol/l -->
     <defs>
      <path d="M 25.390625 72.90625 
L 33.6875 72.90625 
L 8.296875 -9.28125 
L 0 -9.28125 
z
" id="DejaVuSans-47"/>
     </defs>
     <g transform="translate(28.195312 158.840937)rotate(-90)scale(0.1 -0.1)">
      <use xlink:href="#DejaVuSans-110"/>
      <use x="63.378906" xlink:href="#DejaVuSans-109"/>
      <use x="160.791016" xlink:href="#DejaVuSans-111"/>
      <use x="221.972656" xlink:href="#DejaVuSans-108"/>
      <use x="249.755859" xlink:href="#DejaVuSans-47"/>
      <use x="283.447266" xlink:href="#DejaVuSans-108"/>
     </g>
    </g>
   </g>
   <g id="LineCollection_1">
    <path clip-path="url(#p6f4c3957ce)" d="M 69.218182 51.9552 
L 170.672727 51.9552 
" style="fill:none;stroke:#333333;stroke-width:2;"/>
   </g>
   <g id="LineCollection_2">
    <path clip-path="url(#p6f4c3957ce)" d="M 69.218182 57.17376 
L 272.127273 57.17376 
" style="fill:none;stroke:#333333;stroke-width:2;"/>
   </g>
   <g id="LineCollection_3">
    <path clip-path="url(#p6f4c3957ce)" d="M 69.218182 62.39232 
L 373.581818 62.39232 
" style="fill:none;stroke:#333333;stroke-width:2;"/>
   </g>
   <g id="line2d_12">
    <path clip-path="url(#p6f4c3957ce)" d="M 69.218182 98.400384 
L 170.672727 249.39072 
L 272.127273 249.39072 
L 373.581818 249.39072 
" style="fill:none;stroke:#1f77b4;stroke-linecap:square;stroke-opacity:0.3;stroke-width:1.5;"/>
    <defs>
     <path d="M 0 3 
C 0.795609 3 1.55874 2.683901 2.12132 2.12132 
C 2.683901 1.55874 3 0.795609 3 0 
C 3 -0.795609 2.683901 -1.55874 2.12132 -2.12132 
C 1.55874 -2.683901 0.795609 -3 0 -3 
C -0.795609 -3 -1.55874 -2.683901 -2.12132 -2.12132 
C -2.683901 -1.55874 -3 -0.795609 -3 0 
C -3 0.795609 -2.683901 1.55874 -2.12132 2.12132 
C -1.55874 2.683901 -0.795609 3 0 3 
z
" id="m3f2d5b7b6f" style="stroke:#1f77b4;stroke-opacity:0.3;"/>
    </defs>
    <g clip-path="url(#p6f4c3957ce)">
     <use style="fill:#1f77b4;fill-opacity:0.3;stroke:#1f77b4;stroke-opacity:0.3;" x="69.218182" xlink:href="#m3f2d5b7b6f" y="98.400384"/>
     <use style="fill:#1f77b4;fill-opacity:0.3;stroke:#1f77b4;stroke-opacity:0.3;" x="170.672727" xlink:href="#m3f2d5b7b6f" y="249.39072"/>
     <use style="fill:#1f77b4;fill-opacity:0.3;stroke:#1f77b4;stroke-opacity:0.3;" x="272.127273" xlink:href="#m3f2d5b7b6f" y="249.39072"/>
     <use style="fill:#1f77b4;fill-opacity:0.3;stroke:#1f77b4;stroke-opacity:0.3;" x="373.581818" xlink:href="#m3f2d5b7b6f" y="249.39072"/>
    </g>
   </g>
   <g id="line2d_13">
    <path clip-path="url(#p6f4c3957ce)" d="M 69.218182 93.181824 
L 170.672727 249.39072 
L 272.127273 248.52096 
L 373.581818 249.39072 
" style="fill:none;stroke:#ff7f0e;stroke-linecap:square;stroke-opacity:0.3;stroke-width:1.5;"/>
    <defs>
     <path d="M 0 3 
C 0.795609 3 1.55874 2.683901 2.12132 2.12132 
C 2.683901 1.55874 3 0.795609 3 0 
C 3 -0.795609 2.683901 -1.55874 2.12132 -2.12132 
C 1.55874 -2.683901 0.795609 -3 0 -3 
C -0.795609 -3 -1.55874 -2.683901 -2.12132 -2.12132 
C -2.683901 -1.55874 -3 -0.795609 -3 0 
C -3 0.795609 -2.683901 1.55874 -2.12132 2.12132 
C -1.55874 2.683901 -0.795609 3 0 3 
z
" id="m203c140604" style="stroke:#ff7f0e;stroke-opacity:0.3;"/>
    </defs>
    <g clip-path="url(#p6f4c3957ce)">
     <use style="fill:#ff7f0e;fill-opacity:0.3;stroke:#ff7f0e;stroke-opacity:0.3;" x="69.218182" xlink:href="#m203c140604" y="93.181824"/>
     <use style="fill:#ff7f0e;fill-opacity:0.3;stroke:#ff7f0e;stroke-opacity:0.3;" x="170.672727" xlink:href="#m203c140604" y="249.39072"/>
     <use style="fill:#ff7f0e;fill-opacity:0.3;stroke:#ff7f0e;stroke-opacity:0.3;" x="272.127273" xlink:href="#m203c140604" y="248.52096"/>
     <use style="fill:#ff7f0e;fill-opacity:0.3;stroke:#ff7f0e;stroke-opacity:0.3;" x="373.581818" xlink:href="#m203c140604" y="249.39072"/>
    </g>
   </g>
   <g id="line2d_14">
    <path clip-path="url(#p6f4c3957ce)" d="M 69.218182 127.798272 
L 170.672727 230.256 
L 272.127273 246.78144 
L 373.581818 248.52096 
" style="fill:none;stroke:#2ca02c;stroke-linecap:square;stroke-opacity:0.3;stroke-width:1.5;"/>
    <defs>
     <path d="M 0 3 
C 0.795609 3 1.55874 2.683901 2.12132 2.12132 
C 2.683901 1.55874 3 0.795609 3 0 
C 3 -0.795609 2.683901 -1.55874 2.12132 -2.12132 
C 1.55874 -2.683901 0.795609 -3 0 -3 
C -0.795609 -3 -1.55874 -2.683901 -2.12132 -2.12132 
C -2.683901 -1.55874 -3 -0.795609 -3 0 
C -3 0.795609 -2.683901 1.55874 -2.12132 2.12132 
C -1.55874 2.683901 -0.795609 3 0 3 
z
" id="m9a0d862907" style="stroke:#2ca02c;stroke-opacity:0.3;"/>
    </defs>
    <g clip-path="url(#p6f4c3957ce)">
     <use style="fill:#2ca02c;fill-opacity:0.3;stroke:#2ca02c;stroke-opacity:0.3;" x="69.218182" xlink:href="#m9a0d862907" y="127.798272"/>
     <use style="fill:#2ca02c;fill-opacity:0.3;stroke:#2ca02c;stroke-opacity:0.3;" x="170.672727" xlink:href="#m9a0d862907" y="230.256"/>
     <use style="fill:#2ca02c;fill-opacity:0.3;stroke:#2ca02c;stroke-opacity:0.3;" x="272.127273" xlink:href="#m9a0d862907" y="246.78144"/>
     <use style="fill:#2ca02c;fill-opacity:0.3;stroke:#2ca02c;stroke-opacity:0.3;" x="373.581818" xlink:href="#m9a0d862907" y="248.52096"/>
    </g>
   </g>
   <g id="line2d_15">
    <path clip-path="url(#p6f4c3957ce)" d="M 69.218182 101.705472 
L 170.672727 248.52096 
L 272.127273 247.6512 
L 373.581818 248.52096 
" style="fill:none;stroke:#d62728;stroke-linecap:square;stroke-opacity:0.3;stroke-width:1.5;"/>
    <defs>
     <path d="M 0 3 
C 0.795609 3 1.55874 2.683901 2.12132 2.12132 
C 2.683901 1.55874 3 0.795609 3 0 
C 3 -0.795609 2.683901 -1.55874 2.12132 -2.12132 
C 1.55874 -2.683901 0.795609 -3 0 -3 
C -0.795609 -3 -1.55874 -2.683901 -2.12132 -2.12132 
C -2.683901 -1.55874 -3 -0.795609 -3 0 
C -3 0.795609 -2.683901 1.55874 -2.12132 2.12132 
C -1.55874 2.683901 -0.795609 3 0 3 
z
" id="m06405b62b0" style="stroke:#d62728;stroke-opacity:0.3;"/>
    </defs>
    <g clip-path="url(#p6f4c3957ce)">
     <use style="fill:#d62728;fill-opacity:0.3;stroke:#d62728;stroke-opacity:0.3;" x="69.218182" xlink:href="#m06405b62b0" y="101.705472"/>
     <use style="fill:#d62728;fill-opacity:0.3;stroke:#d62728;stroke-opacity:0.3;" x="170.672727" xlink:href="#m06405b62b0" y="248.52096"/>
     <use style="fill:#d62728;fill-opacity:0.3;stroke:#d62728;stroke-opacity:0.3;" x="272.127273" xlink:href="#m06405b62b0" y="247.6512"/>
     <use style="fill:#d62728;fill-opacity:0.3;stroke:#d62728;stroke-opacity:0.3;" x="373.581818" xlink:href="#m06405b62b0" y="248.52096"/>
    </g>
   </g>
   <g id="line2d_16">
    <path clip-path="url(#p6f4c3957ce)" d="M 69.218182 96.139008 
L 170.672727 247.999104 
L 272.127273 249.39072 
L 373.581818 249.39072 
" style="fill:none;stroke:#9467bd;stroke-linecap:square;stroke-opacity:0.3;stroke-width:1.5;"/>
    <defs>
     <path d="M 0 3 
C 0.795609 3 1.55874 2.683901 2.12132 2.12132 
C 2.683901 1.55874 3 0.795609 3 0 
C 3 -0.795609 2.683901 -1.55874 2.12132 -2.12132 
C 1.55874 -2.683901 0.795609 -3 0 -3 
C -0.795609 -3 -1.55874 -2.683901 -2.12132 -2.12132 
C -2.683901 -1.55874 -3 -0.795609 -3 0 
C -3 0.795609 -2.683901 1.55874 -2.12132 2.12132 
C -1.55874 2.683901 -0.795609 3 0 3 
z
" id="m0359b6388e" style="stroke:#9467bd;stroke-opacity:0.3;"/>
    </defs>
    <g clip-path="url(#p6f4c3957ce)">
     <use style="fill:#9467bd;fill-opacity:0.3;stroke:#9467bd;stroke-opacity:0.3;" x="69.218182" xlink:href="#m0359b6388e" y="96.139008"/>
     <use style="fill:#9467bd;fill-opacity:0.3;stroke:#9467bd;stroke-opacity:0.3;" x="170.672727" xlink:href="#m0359b6388e" y="247.999104"/>
     <use style="fill:#9467bd;fill-opacity:0.3;stroke:#9467bd;stroke-opacity:0.3;" x="272.127273" xlink:href="#m0359b6388e" y="249.39072"/>
     <use style="fill:#9467bd;fill-opacity:0.3;stroke:#9467bd;stroke-opacity:0.3;" x="373.581818" xlink:href="#m0359b6388e" y="249.39072"/>
    </g>
   </g>
   <g id="line2d_17">
    <path clip-path="url(#p6f4c3957ce)" d="M 69.218182 103.444992 
L 170.672727 231.99552 
L 272.127273 233.73504 
L 373.581818 249.39072 
" style="fill:none;stroke:#8c564b;stroke-linecap:square;stroke-opacity:0.3;stroke-width:1.5;"/>
    <defs>
     <path d="M 0 3 
C 0.795609 3 1.55874 2.683901 2.12132 2.12132 
C 2.683901 1.55874 3 0.795609 3 0 
C 3 -0.795609 2.683901 -1.55874 2.12132 -2.12132 
C 1.55874 -2.683901 0.795609 -3 0 -3 
C -0.795609 -3 -1.55874 -2.683901 -2.12132 -2.12132 
C -2.683901 -1.55874 -3 -0.795609 -3 0 
C -3 0.795609 -2.683901 1.55874 -2.12132 2.12132 
C -1.55874 2.683901 -0.795609 3 0 3 
z
" id="mc46d1af81a" style="stroke:#8c564b;stroke-opacity:0.3;"/>
    </defs>
    <g clip-path="url(#p6f4c3957ce)">
     <use style="fill:#8c564b;fill-opacity:0.3;stroke:#8c564b;stroke-opacity:0.3;" x="69.218182" xlink:href="#mc46d1af81a" y="103.444992"/>
     <use style="fill:#8c564b;fill-opacity:0.3;stroke:#8c564b;stroke-opacity:0.3;" x="170.672727" xlink:href="#mc46d1af81a" y="231.99552"/>
     <use style="fill:#8c564b;fill-opacity:0.3;stroke:#8c564b;stroke-opacity:0.3;" x="272.127273" xlink:href="#mc46d1af81a" y="233.73504"/>
     <use style="fill:#8c564b;fill-opacity:0.3;stroke:#8c564b;stroke-opacity:0.3;" x="373.581818" xlink:href="#mc46d1af81a" y="249.39072"/>
    </g>
   </g>
   <g id="line2d_18">
    <path clip-path="url(#p6f4c3957ce)" d="M 69.218182 118.578816 
L 170.672727 248.347008 
L 272.127273 247.6512 
L 373.581818 245.91168 
" style="fill:none;stroke:#e377c2;stroke-linecap:square;stroke-opacity:0.3;stroke-width:1.5;"/>
    <defs>
     <path d="M 0 3 
C 0.795609 3 1.55874 2.683901 2.12132 2.12132 
C 2.683901 1.55874 3 0.795609 3 0 
C 3 -0.795609 2.683901 -1.55874 2.12132 -2.12132 
C 1.55874 -2.683901 0.795609 -3 0 -3 
C -0.795609 -3 -1.55874 -2.683901 -2.12132 -2.12132 
C -2.683901 -1.55874 -3 -0.795609 -3 0 
C -3 0.795609 -2.683901 1.55874 -2.12132 2.12132 
C -1.55874 2.683901 -0.795609 3 0 3 
z
" id="mb78e9078fa" style="stroke:#e377c2;stroke-opacity:0.3;"/>
    </defs>
    <g clip-path="url(#p6f4c3957ce)">
     <use style="fill:#e377c2;fill-opacity:0.3;stroke:#e377c2;stroke-opacity:0.3;" x="69.218182" xlink:href="#mb78e9078fa" y="118.578816"/>
     <use style="fill:#e377c2;fill-opacity:0.3;stroke:#e377c2;stroke-opacity:0.3;" x="170.672727" xlink:href="#mb78e9078fa" y="248.347008"/>
     <use style="fill:#e377c2;fill-opacity:0.3;stroke:#e377c2;stroke-opacity:0.3;" x="272.127273" xlink:href="#mb78e9078fa" y="247.6512"/>
     <use style="fill:#e377c2;fill-opacity:0.3;stroke:#e377c2;stroke-opacity:0.3;" x="373.581818" xlink:href="#mb78e9078fa" y="245.91168"/>
    </g>
   </g>
   <g id="line2d_19">
    <path clip-path="url(#p6f4c3957ce)" d="M 69.218182 75.43872 
L 170.672727 249.39072 
L 272.127273 249.39072 
L 373.581818 248.52096 
" style="fill:none;stroke:#7f7f7f;stroke-linecap:square;stroke-opacity:0.3;stroke-width:1.5;"/>
    <defs>
     <path d="M 0 3 
C 0.795609 3 1.55874 2.683901 2.12132 2.12132 
C 2.683901 1.55874 3 0.795609 3 0 
C 3 -0.795609 2.683901 -1.55874 2.12132 -2.12132 
C 1.55874 -2.683901 0.795609 -3 0 -3 
C -0.795609 -3 -1.55874 -2.683901 -2.12132 -2.12132 
C -2.683901 -1.55874 -3 -0.795609 -3 0 
C -3 0.795609 -2.683901 1.55874 -2.12132 2.12132 
C -1.55874 2.683901 -0.795609 3 0 3 
z
" id="m7416e084d3" style="stroke:#7f7f7f;stroke-opacity:0.3;"/>
    </defs>
    <g clip-path="url(#p6f4c3957ce)">
     <use style="fill:#7f7f7f;fill-opacity:0.3;stroke:#7f7f7f;stroke-opacity:0.3;" x="69.218182" xlink:href="#m7416e084d3" y="75.43872"/>
     <use style="fill:#7f7f7f;fill-opacity:0.3;stroke:#7f7f7f;stroke-opacity:0.3;" x="170.672727" xlink:href="#m7416e084d3" y="249.39072"/>
     <use style="fill:#7f7f7f;fill-opacity:0.3;stroke:#7f7f7f;stroke-opacity:0.3;" x="272.127273" xlink:href="#m7416e084d3" y="249.39072"/>
     <use style="fill:#7f7f7f;fill-opacity:0.3;stroke:#7f7f7f;stroke-opacity:0.3;" x="373.581818" xlink:href="#m7416e084d3" y="248.52096"/>
    </g>
   </g>
   <g id="line2d_20">
    <path clip-path="url(#p6f4c3957ce)" d="M 69.218182 104.1408 
L 170.672727 249.39072 
L 272.127273 249.39072 
L 373.581818 249.39072 
" style="fill:none;stroke:#bcbd22;stroke-linecap:square;stroke-opacity:0.3;stroke-width:1.5;"/>
    <defs>
     <path d="M 0 3 
C 0.795609 3 1.55874 2.683901 2.12132 2.12132 
C 2.683901 1.55874 3 0.795609 3 0 
C 3 -0.795609 2.683901 -1.55874 2.12132 -2.12132 
C 1.55874 -2.683901 0.795609 -3 0 -3 
C -0.795609 -3 -1.55874 -2.683901 -2.12132 -2.12132 
C -2.683901 -1.55874 -3 -0.795609 -3 0 
C -3 0.795609 -2.683901 1.55874 -2.12132 2.12132 
C -1.55874 2.683901 -0.795609 3 0 3 
z
" id="mf59909d8df" style="stroke:#bcbd22;stroke-opacity:0.3;"/>
    </defs>
    <g clip-path="url(#p6f4c3957ce)">
     <use style="fill:#bcbd22;fill-opacity:0.3;stroke:#bcbd22;stroke-opacity:0.3;" x="69.218182" xlink:href="#mf59909d8df" y="104.1408"/>
     <use style="fill:#bcbd22;fill-opacity:0.3;stroke:#bcbd22;stroke-opacity:0.3;" x="170.672727" xlink:href="#mf59909d8df" y="249.39072"/>
     <use style="fill:#bcbd22;fill-opacity:0.3;stroke:#bcbd22;stroke-opacity:0.3;" x="272.127273" xlink:href="#mf59909d8df" y="249.39072"/>
     <use style="fill:#bcbd22;fill-opacity:0.3;stroke:#bcbd22;stroke-opacity:0.3;" x="373.581818" xlink:href="#mf59909d8df" y="249.39072"/>
    </g>
   </g>
   <g id="line2d_21">
    <path clip-path="url(#p6f4c3957ce)" d="M 69.218182 110.22912 
L 170.672727 229.38624 
L 272.127273 234.6048 
L 373.581818 245.04192 
" style="fill:none;stroke:#17becf;stroke-linecap:square;stroke-opacity:0.3;stroke-width:1.5;"/>
    <defs>
     <path d="M 0 3 
C 0.795609 3 1.55874 2.683901 2.12132 2.12132 
C 2.683901 1.55874 3 0.795609 3 0 
C 3 -0.795609 2.683901 -1.55874 2.12132 -2.12132 
C 1.55874 -2.683901 0.795609 -3 0 -3 
C -0.795609 -3 -1.55874 -2.683901 -2.12132 -2.12132 
C -2.683901 -1.55874 -3 -0.795609 -3 0 
C -3 0.795609 -2.683901 1.55874 -2.12132 2.12132 
C -1.55874 2.683901 -0.795609 3 0 3 
z
" id="mfec3393bcb" style="stroke:#17becf;stroke-opacity:0.3;"/>
    </defs>
    <g clip-path="url(#p6f4c3957ce)">
     <use style="fill:#17becf;fill-opacity:0.3;stroke:#17becf;stroke-opacity:0.3;" x="69.218182" xlink:href="#mfec3393bcb" y="110.22912"/>
     <use style="fill:#17becf;fill-opacity:0.3;stroke:#17becf;stroke-opacity:0.3;" x="170.672727" xlink:href="#mfec3393bcb" y="229.38624"/>
     <use style="fill:#17becf;fill-opacity:0.3;stroke:#17becf;stroke-opacity:0.3;" x="272.127273" xlink:href="#mfec3393bcb" y="234.6048"/>
     <use style="fill:#17becf;fill-opacity:0.3;stroke:#17becf;stroke-opacity:0.3;" x="373.581818" xlink:href="#mfec3393bcb" y="245.04192"/>
    </g>
   </g>
   <g id="line2d_22">
    <path clip-path="url(#p6f4c3957ce)" d="M 69.218182 99.618048 
L 170.672727 230.603904 
L 272.127273 249.39072 
L 373.581818 249.39072 
" style="fill:none;stroke:#1f77b4;stroke-linecap:square;stroke-opacity:0.3;stroke-width:1.5;"/>
    <g clip-path="url(#p6f4c3957ce)">
     <use style="fill:#1f77b4;fill-opacity:0.3;stroke:#1f77b4;stroke-opacity:0.3;" x="69.218182" xlink:href="#m3f2d5b7b6f" y="99.618048"/>
     <use style="fill:#1f77b4;fill-opacity:0.3;stroke:#1f77b4;stroke-opacity:0.3;" x="170.672727" xlink:href="#m3f2d5b7b6f" y="230.603904"/>
     <use style="fill:#1f77b4;fill-opacity:0.3;stroke:#1f77b4;stroke-opacity:0.3;" x="272.127273" xlink:href="#m3f2d5b7b6f" y="249.39072"/>
     <use style="fill:#1f77b4;fill-opacity:0.3;stroke:#1f77b4;stroke-opacity:0.3;" x="373.581818" xlink:href="#m3f2d5b7b6f" y="249.39072"/>
    </g>
   </g>
   <g id="line2d_23">
    <path clip-path="url(#p6f4c3957ce)" d="M 69.218182 105.358464 
L 170.672727 246.78144 
L 272.127273 248.52096 
L 373.581818 249.39072 
" style="fill:none;stroke:#ff7f0e;stroke-linecap:square;stroke-opacity:0.3;stroke-width:1.5;"/>
    <g clip-path="url(#p6f4c3957ce)">
     <use style="fill:#ff7f0e;fill-opacity:0.3;stroke:#ff7f0e;stroke-opacity:0.3;" x="69.218182" xlink:href="#m203c140604" y="105.358464"/>
     <use style="fill:#ff7f0e;fill-opacity:0.3;stroke:#ff7f0e;stroke-opacity:0.3;" x="170.672727" xlink:href="#m203c140604" y="246.78144"/>
     <use style="fill:#ff7f0e;fill-opacity:0.3;stroke:#ff7f0e;stroke-opacity:0.3;" x="272.127273" xlink:href="#m203c140604" y="248.52096"/>
     <use style="fill:#ff7f0e;fill-opacity:0.3;stroke:#ff7f0e;stroke-opacity:0.3;" x="373.581818" xlink:href="#m203c140604" y="249.39072"/>
    </g>
   </g>
   <g id="line2d_24">
    <path clip-path="url(#p6f4c3957ce)" d="M 69.218182 114.751872 
L 170.672727 249.39072 
L 272.127273 249.39072 
L 373.581818 249.39072 
" style="fill:none;stroke:#2ca02c;stroke-linecap:square;stroke-opacity:0.3;stroke-width:1.5;"/>
    <g clip-path="url(#p6f4c3957ce)">
     <use style="fill:#2ca02c;fill-opacity:0.3;stroke:#2ca02c;stroke-opacity:0.3;" x="69.218182" xlink:href="#m9a0d862907" y="114.751872"/>
     <use style="fill:#2ca02c;fill-opacity:0.3;stroke:#2ca02c;stroke-opacity:0.3;" x="170.672727" xlink:href="#m9a0d862907" y="249.39072"/>
     <use style="fill:#2ca02c;fill-opacity:0.3;stroke:#2ca02c;stroke-opacity:0.3;" x="272.127273" xlink:href="#m9a0d862907" y="249.39072"/>
     <use style="fill:#2ca02c;fill-opacity:0.3;stroke:#2ca02c;stroke-opacity:0.3;" x="373.581818" xlink:href="#m9a0d862907" y="249.39072"/>
    </g>
   </g>
   <g id="line2d_25">
    <path clip-path="url(#p6f4c3957ce)" d="M 69.218182 80.483328 
L 170.672727 248.52096 
L 272.127273 249.39072 
L 373.581818 248.52096 
" style="fill:none;stroke:#d62728;stroke-linecap:square;stroke-opacity:0.3;stroke-width:1.5;"/>
    <g clip-path="url(#p6f4c3957ce)">
     <use style="fill:#d62728;fill-opacity:0.3;stroke:#d62728;stroke-opacity:0.3;" x="69.218182" xlink:href="#m06405b62b0" y="80.483328"/>
     <use style="fill:#d62728;fill-opacity:0.3;stroke:#d62728;stroke-opacity:0.3;" x="170.672727" xlink:href="#m06405b62b0" y="248.52096"/>
     <use style="fill:#d62728;fill-opacity:0.3;stroke:#d62728;stroke-opacity:0.3;" x="272.127273" xlink:href="#m06405b62b0" y="249.39072"/>
     <use style="fill:#d62728;fill-opacity:0.3;stroke:#d62728;stroke-opacity:0.3;" x="373.581818" xlink:href="#m06405b62b0" y="248.52096"/>
    </g>
   </g>
   <g id="line2d_26">
    <path clip-path="url(#p6f4c3957ce)" d="M 69.218182 100.313856 
L 170.672727 247.825152 
L 272.127273 248.52096 
L 373.581818 249.39072 
" style="fill:none;stroke:#9467bd;stroke-linecap:square;stroke-opacity:0.3;stroke-width:1.5;"/>
    <g clip-path="url(#p6f4c3957ce)">
     <use style="fill:#9467bd;fill-opacity:0.3;stroke:#9467bd;stroke-opacity:0.3;" x="69.218182" xlink:href="#m0359b6388e" y="100.313856"/>
     <use style="fill:#9467bd;fill-opacity:0.3;stroke:#9467bd;stroke-opacity:0.3;" x="170.672727" xlink:href="#m0359b6388e" y="247.825152"/>
     <use style="fill:#9467bd;fill-opacity:0.3;stroke:#9467bd;stroke-opacity:0.3;" x="272.127273" xlink:href="#m0359b6388e" y="248.52096"/>
     <use style="fill:#9467bd;fill-opacity:0.3;stroke:#9467bd;stroke-opacity:0.3;" x="373.581818" xlink:href="#m0359b6388e" y="249.39072"/>
    </g>
   </g>
   <g id="line2d_27">
    <path clip-path="url(#p6f4c3957ce)" d="M 69.218182 99.270144 
L 170.672727 249.39072 
L 272.127273 249.39072 
L 373.581818 249.39072 
" style="fill:none;stroke:#8c564b;stroke-linecap:square;stroke-opacity:0.3;stroke-width:1.5;"/>
    <g clip-path="url(#p6f4c3957ce)">
     <use style="fill:#8c564b;fill-opacity:0.3;stroke:#8c564b;stroke-opacity:0.3;" x="69.218182" xlink:href="#mc46d1af81a" y="99.270144"/>
     <use style="fill:#8c564b;fill-opacity:0.3;stroke:#8c564b;stroke-opacity:0.3;" x="170.672727" xlink:href="#mc46d1af81a" y="249.39072"/>
     <use style="fill:#8c564b;fill-opacity:0.3;stroke:#8c564b;stroke-opacity:0.3;" x="272.127273" xlink:href="#mc46d1af81a" y="249.39072"/>
     <use style="fill:#8c564b;fill-opacity:0.3;stroke:#8c564b;stroke-opacity:0.3;" x="373.581818" xlink:href="#mc46d1af81a" y="249.39072"/>
    </g>
   </g>
   <g id="line2d_28">
    <path clip-path="url(#p6f4c3957ce)" d="M 69.218182 107.967744 
L 170.672727 247.6512 
L 272.127273 248.52096 
L 373.581818 247.6512 
" style="fill:none;stroke:#e377c2;stroke-linecap:square;stroke-opacity:0.3;stroke-width:1.5;"/>
    <g clip-path="url(#p6f4c3957ce)">
     <use style="fill:#e377c2;fill-opacity:0.3;stroke:#e377c2;stroke-opacity:0.3;" x="69.218182" xlink:href="#mb78e9078fa" y="107.967744"/>
     <use style="fill:#e377c2;fill-opacity:0.3;stroke:#e377c2;stroke-opacity:0.3;" x="170.672727" xlink:href="#mb78e9078fa" y="247.6512"/>
     <use style="fill:#e377c2;fill-opacity:0.3;stroke:#e377c2;stroke-opacity:0.3;" x="272.127273" xlink:href="#mb78e9078fa" y="248.52096"/>
     <use style="fill:#e377c2;fill-opacity:0.3;stroke:#e377c2;stroke-opacity:0.3;" x="373.581818" xlink:href="#mb78e9078fa" y="247.6512"/>
    </g>
   </g>
   <g id="line2d_29">
    <path clip-path="url(#p6f4c3957ce)" d="M 69.218182 101.53152 
L 170.672727 249.39072 
L 272.127273 249.39072 
L 373.581818 249.39072 
" style="fill:none;stroke:#7f7f7f;stroke-linecap:square;stroke-opacity:0.3;stroke-width:1.5;"/>
    <g clip-path="url(#p6f4c3957ce)">
     <use style="fill:#7f7f7f;fill-opacity:0.3;stroke:#7f7f7f;stroke-opacity:0.3;" x="69.218182" xlink:href="#m7416e084d3" y="101.53152"/>
     <use style="fill:#7f7f7f;fill-opacity:0.3;stroke:#7f7f7f;stroke-opacity:0.3;" x="170.672727" xlink:href="#m7416e084d3" y="249.39072"/>
     <use style="fill:#7f7f7f;fill-opacity:0.3;stroke:#7f7f7f;stroke-opacity:0.3;" x="272.127273" xlink:href="#m7416e084d3" y="249.39072"/>
     <use style="fill:#7f7f7f;fill-opacity:0.3;stroke:#7f7f7f;stroke-opacity:0.3;" x="373.581818" xlink:href="#m7416e084d3" y="249.39072"/>
    </g>
   </g>
   <g id="line2d_30">
    <path clip-path="url(#p6f4c3957ce)" d="M 69.218182 93.70368 
L 170.672727 249.39072 
L 272.127273 248.52096 
L 373.581818 249.39072 
" style="fill:none;stroke:#bcbd22;stroke-linecap:square;stroke-opacity:0.3;stroke-width:1.5;"/>
    <g clip-path="url(#p6f4c3957ce)">
     <use style="fill:#bcbd22;fill-opacity:0.3;stroke:#bcbd22;stroke-opacity:0.3;" x="69.218182" xlink:href="#mf59909d8df" y="93.70368"/>
     <use style="fill:#bcbd22;fill-opacity:0.3;stroke:#bcbd22;stroke-opacity:0.3;" x="170.672727" xlink:href="#mf59909d8df" y="249.39072"/>
     <use style="fill:#bcbd22;fill-opacity:0.3;stroke:#bcbd22;stroke-opacity:0.3;" x="272.127273" xlink:href="#mf59909d8df" y="248.52096"/>
     <use style="fill:#bcbd22;fill-opacity:0.3;stroke:#bcbd22;stroke-opacity:0.3;" x="373.581818" xlink:href="#mf59909d8df" y="249.39072"/>
    </g>
   </g>
   <g id="line2d_31">
    <path clip-path="url(#p6f4c3957ce)" d="M 69.218182 105.184512 
L 170.672727 249.39072 
L 272.127273 249.39072 
L 373.581818 249.39072 
" style="fill:none;stroke:#17becf;stroke-linecap:square;stroke-opacity:0.3;stroke-width:1.5;"/>
    <g clip-path="url(#p6f4c3957ce)">
     <use style="fill:#17becf;fill-opacity:0.3;stroke:#17becf;stroke-opacity:0.3;" x="69.218182" xlink:href="#mfec3393bcb" y="105.184512"/>
     <use style="fill:#17becf;fill-opacity:0.3;stroke:#17becf;stroke-opacity:0.3;" x="170.672727" xlink:href="#mfec3393bcb" y="249.39072"/>
     <use style="fill:#17becf;fill-opacity:0.3;stroke:#17becf;stroke-opacity:0.3;" x="272.127273" xlink:href="#mfec3393bcb" y="249.39072"/>
     <use style="fill:#17becf;fill-opacity:0.3;stroke:#17becf;stroke-opacity:0.3;" x="373.581818" xlink:href="#mfec3393bcb" y="249.39072"/>
    </g>
   </g>
   <g id="patch_3">
    <path d="M 54 252 
L 54 34.56 
" style="fill:none;stroke:#000000;stroke-linecap:square;stroke-linejoin:miter;stroke-width:0.8;"/>
   </g>
   <g id="patch_4">
    <path d="M 388.8 252 
L 388.8 34.56 
" style="fill:none;stroke:#000000;stroke-linecap:square;stroke-linejoin:miter;stroke-width:0.8;"/>
   </g>
   <g id="patch_5">
    <path d="M 54 252 
L 388.8 252 
" style="fill:none;stroke:#000000;stroke-linecap:square;stroke-linejoin:miter;stroke-width:0.8;"/>
   </g>
   <g id="patch_6">
    <path d="M 54 34.56 
L 388.8 34.56 
" style="fill:none;stroke:#000000;stroke-linecap:square;stroke-linejoin:miter;stroke-width:0.8;"/>
   </g>
   <g id="text_14">
    <!-- **** -->
    <defs>
     <path d="M 47.015625 60.890625 
L 29.5 51.421875 
L 47.015625 41.890625 
L 44.1875 37.109375 
L 27.78125 47.015625 
L 27.78125 28.609375 
L 22.21875 28.609375 
L 22.21875 47.015625 
L 5.8125 37.109375 
L 2.984375 41.890625 
L 20.515625 51.421875 
L 2.984375 60.890625 
L 5.8125 65.71875 
L 22.21875 55.8125 
L 22.21875 74.21875 
L 27.78125 74.21875 
L 27.78125 55.8125 
L 44.1875 65.71875 
z
" id="DejaVuSans-42"/>
    </defs>
    <g transform="translate(155.454545 49.34592)scale(0.12 -0.12)">
     <use xlink:href="#DejaVuSans-42"/>
     <use x="50" xlink:href="#DejaVuSans-42"/>
     <use x="100" xlink:href="#DejaVuSans-42"/>
     <use x="150" xlink:href="#DejaVuSans-42"/>
    </g>
   </g>
   <g id="text_15">
    <!-- **** -->
    <g transform="translate(256.909091 54.56448)scale(0.12 -0.12)">
     <use xlink:href="#DejaVuSans-42"/>
     <use x="50" xlink:href="#DejaVuSans-42"/>
     <use x="100" xlink:href="#DejaVuSans-42"/>
     <use x="150" xlink:href="#DejaVuSans-42"/>
    </g>
   </g>
   <g id="text_16">
    <!-- **** -->
    <g transform="translate(358.363636 59.78304)scale(0.12 -0.12)">
     <use xlink:href="#DejaVuSans-42"/>
     <use x="50" xlink:href="#DejaVuSans-42"/>
     <use x="100" xlink:href="#DejaVuSans-42"/>
     <use x="150" xlink:href="#DejaVuSans-42"/>
    </g>
   </g>
   <g id="text_17">
    <!-- Ð                                                                                                          -->
    <defs>
     <path d="M 34.1875 63.1875 
L 20.796875 26.90625 
L 47.609375 26.90625 
z
M 28.609375 72.90625 
L 39.796875 72.90625 
L 67.578125 0 
L 57.328125 0 
L 50.6875 18.703125 
L 17.828125 18.703125 
L 11.1875 0 
L 0.78125 0 
z
" id="DejaVuSans-1040"/>
    </defs>
    <g transform="translate(17.07375 1.68525)scale(0.12 -0.12)">
     <use xlink:href="#DejaVuSans-1040"/>
     <use x="68.408203" xlink:href="#DejaVuSans-32"/>
     <use x="100.195312" xlink:href="#DejaVuSans-32"/>
     <use x="131.982422" xlink:href="#DejaVuSans-32"/>
     <use x="163.769531" xlink:href="#DejaVuSans-32"/>
     <use x="195.556641" xlink:href="#DejaVuSans-32"/>
     <use x="227.34375" xlink:href="#DejaVuSans-32"/>
     <use x="259.130859" xlink:href="#DejaVuSans-32"/>
     <use x="290.917969" xlink:href="#DejaVuSans-32"/>
     <use x="322.705078" xlink:href="#DejaVuSans-32"/>
     <use x="354.492188" xlink:href="#DejaVuSans-32"/>
     <use x="386.279297" xlink:href="#DejaVuSans-32"/>
     <use x="418.066406" xlink:href="#DejaVuSans-32"/>
     <use x="449.853516" xlink:href="#DejaVuSans-32"/>
     <use x="481.640625" xlink:href="#DejaVuSans-32"/>
     <use x="513.427734" xlink:href="#DejaVuSans-32"/>
     <use x="545.214844" xlink:href="#DejaVuSans-32"/>
     <use x="577.001953" xlink:href="#DejaVuSans-32"/>
     <use x="608.789062" xlink:href="#DejaVuSans-32"/>
     <use x="640.576172" xlink:href="#DejaVuSans-32"/>
     <use x="672.363281" xlink:href="#DejaVuSans-32"/>
     <use x="704.150391" xlink:href="#DejaVuSans-32"/>
     <use x="735.9375" xlink:href="#DejaVuSans-32"/>
     <use x="767.724609" xlink:href="#DejaVuSans-32"/>
     <use x="799.511719" xlink:href="#DejaVuSans-32"/>
     <use x="831.298828" xlink:href="#DejaVuSans-32"/>
     <use x="863.085938" xlink:href="#DejaVuSans-32"/>
     <use x="894.873047" xlink:href="#DejaVuSans-32"/>
     <use x="926.660156" xlink:href="#DejaVuSans-32"/>
     <use x="958.447266" xlink:href="#DejaVuSans-32"/>
     <use x="990.234375" xlink:href="#DejaVuSans-32"/>
     <use x="1022.021484" xlink:href="#DejaVuSans-32"/>
     <use x="1053.808594" xlink:href="#DejaVuSans-32"/>
     <use x="1085.595703" xlink:href="#DejaVuSans-32"/>
     <use x="1117.382812" xlink:href="#DejaVuSans-32"/>
     <use x="1149.169922" xlink:href="#DejaVuSans-32"/>
     <use x="1180.957031" xlink:href="#DejaVuSans-32"/>
     <use x="1212.744141" xlink:href="#DejaVuSans-32"/>
     <use x="1244.53125" xlink:href="#DejaVuSans-32"/>
     <use x="1276.318359" xlink:href="#DejaVuSans-32"/>
     <use x="1308.105469" xlink:href="#DejaVuSans-32"/>
     <use x="1339.892578" xlink:href="#DejaVuSans-32"/>
     <use x="1371.679688" xlink:href="#DejaVuSans-32"/>
     <use x="1403.466797" xlink:href="#DejaVuSans-32"/>
     <use x="1435.253906" xlink:href="#DejaVuSans-32"/>
     <use x="1467.041016" xlink:href="#DejaVuSans-32"/>
     <use x="1498.828125" xlink:href="#DejaVuSans-32"/>
     <use x="1530.615234" xlink:href="#DejaVuSans-32"/>
     <use x="1562.402344" xlink:href="#DejaVuSans-32"/>
     <use x="1594.189453" xlink:href="#DejaVuSans-32"/>
     <use x="1625.976562" xlink:href="#DejaVuSans-32"/>
     <use x="1657.763672" xlink:href="#DejaVuSans-32"/>
     <use x="1689.550781" xlink:href="#DejaVuSans-32"/>
     <use x="1721.337891" xlink:href="#DejaVuSans-32"/>
     <use x="1753.125" xlink:href="#DejaVuSans-32"/>
     <use x="1784.912109" xlink:href="#DejaVuSans-32"/>
     <use x="1816.699219" xlink:href="#DejaVuSans-32"/>
     <use x="1848.486328" xlink:href="#DejaVuSans-32"/>
     <use x="1880.273438" xlink:href="#DejaVuSans-32"/>
     <use x="1912.060547" xlink:href="#DejaVuSans-32"/>
     <use x="1943.847656" xlink:href="#DejaVuSans-32"/>
     <use x="1975.634766" xlink:href="#DejaVuSans-32"/>
     <use x="2007.421875" xlink:href="#DejaVuSans-32"/>
     <use x="2039.208984" xlink:href="#DejaVuSans-32"/>
     <use x="2070.996094" xlink:href="#DejaVuSans-32"/>
     <use x="2102.783203" xlink:href="#DejaVuSans-32"/>
     <use x="2134.570312" xlink:href="#DejaVuSans-32"/>
     <use x="2166.357422" xlink:href="#DejaVuSans-32"/>
     <use x="2198.144531" xlink:href="#DejaVuSans-32"/>
     <use x="2229.931641" xlink:href="#DejaVuSans-32"/>
     <use x="2261.71875" xlink:href="#DejaVuSans-32"/>
     <use x="2293.505859" xlink:href="#DejaVuSans-32"/>
     <use x="2325.292969" xlink:href="#DejaVuSans-32"/>
     <use x="2357.080078" xlink:href="#DejaVuSans-32"/>
     <use x="2388.867188" xlink:href="#DejaVuSans-32"/>
     <use x="2420.654297" xlink:href="#DejaVuSans-32"/>
     <use x="2452.441406" xlink:href="#DejaVuSans-32"/>
     <use x="2484.228516" xlink:href="#DejaVuSans-32"/>
     <use x="2516.015625" xlink:href="#DejaVuSans-32"/>
     <use x="2547.802734" xlink:href="#DejaVuSans-32"/>
     <use x="2579.589844" xlink:href="#DejaVuSans-32"/>
     <use x="2611.376953" xlink:href="#DejaVuSans-32"/>
     <use x="2643.164062" xlink:href="#DejaVuSans-32"/>
     <use x="2674.951172" xlink:href="#DejaVuSans-32"/>
     <use x="2706.738281" xlink:href="#DejaVuSans-32"/>
     <use x="2738.525391" xlink:href="#DejaVuSans-32"/>
     <use x="2770.3125" xlink:href="#DejaVuSans-32"/>
     <use x="2802.099609" xlink:href="#DejaVuSans-32"/>
     <use x="2833.886719" xlink:href="#DejaVuSans-32"/>
     <use x="2865.673828" xlink:href="#DejaVuSans-32"/>
     <use x="2897.460938" xlink:href="#DejaVuSans-32"/>
     <use x="2929.248047" xlink:href="#DejaVuSans-32"/>
     <use x="2961.035156" xlink:href="#DejaVuSans-32"/>
     <use x="2992.822266" xlink:href="#DejaVuSans-32"/>
     <use x="3024.609375" xlink:href="#DejaVuSans-32"/>
     <use x="3056.396484" xlink:href="#DejaVuSans-32"/>
     <use x="3088.183594" xlink:href="#DejaVuSans-32"/>
     <use x="3119.970703" xlink:href="#DejaVuSans-32"/>
     <use x="3151.757812" xlink:href="#DejaVuSans-32"/>
     <use x="3183.544922" xlink:href="#DejaVuSans-32"/>
     <use x="3215.332031" xlink:href="#DejaVuSans-32"/>
     <use x="3247.119141" xlink:href="#DejaVuSans-32"/>
     <use x="3278.90625" xlink:href="#DejaVuSans-32"/>
     <use x="3310.693359" xlink:href="#DejaVuSans-32"/>
     <use x="3342.480469" xlink:href="#DejaVuSans-32"/>
     <use x="3374.267578" xlink:href="#DejaVuSans-32"/>
    </g>
    <!--                          Serum total testosterone changes                            -->
    <defs>
     <path d="M 53.515625 70.515625 
L 53.515625 60.890625 
Q 47.90625 63.578125 42.921875 64.890625 
Q 37.9375 66.21875 33.296875 66.21875 
Q 25.25 66.21875 20.875 63.09375 
Q 16.5 59.96875 16.5 54.203125 
Q 16.5 49.359375 19.40625 46.890625 
Q 22.3125 44.4375 30.421875 42.921875 
L 36.375 41.703125 
Q 47.40625 39.59375 52.65625 34.296875 
Q 57.90625 29 57.90625 20.125 
Q 57.90625 9.515625 50.796875 4.046875 
Q 43.703125 -1.421875 29.984375 -1.421875 
Q 24.8125 -1.421875 18.96875 -0.25 
Q 13.140625 0.921875 6.890625 3.21875 
L 6.890625 13.375 
Q 12.890625 10.015625 18.65625 8.296875 
Q 24.421875 6.59375 29.984375 6.59375 
Q 38.421875 6.59375 43.015625 9.90625 
Q 47.609375 13.234375 47.609375 19.390625 
Q 47.609375 24.75 44.3125 27.78125 
Q 41.015625 30.8125 33.5 32.328125 
L 27.484375 33.5 
Q 16.453125 35.6875 11.515625 40.375 
Q 6.59375 45.0625 6.59375 53.421875 
Q 6.59375 63.09375 13.40625 68.65625 
Q 20.21875 74.21875 32.171875 74.21875 
Q 37.3125 74.21875 42.625 73.28125 
Q 47.953125 72.359375 53.515625 70.515625 
z
" id="DejaVuSans-83"/>
     <path d="M 8.5 21.578125 
L 8.5 54.6875 
L 17.484375 54.6875 
L 17.484375 21.921875 
Q 17.484375 14.15625 20.5 10.265625 
Q 23.53125 6.390625 29.59375 6.390625 
Q 36.859375 6.390625 41.078125 11.03125 
Q 45.3125 15.671875 45.3125 23.6875 
L 45.3125 54.6875 
L 54.296875 54.6875 
L 54.296875 0 
L 45.3125 0 
L 45.3125 8.40625 
Q 42.046875 3.421875 37.71875 1 
Q 33.40625 -1.421875 27.6875 -1.421875 
Q 18.265625 -1.421875 13.375 4.4375 
Q 8.5 10.296875 8.5 21.578125 
z
M 31.109375 56 
z
" id="DejaVuSans-117"/>
     <path d="M 44.28125 53.078125 
L 44.28125 44.578125 
Q 40.484375 46.53125 36.375 47.5 
Q 32.28125 48.484375 27.875 48.484375 
Q 21.1875 48.484375 17.84375 46.4375 
Q 14.5 44.390625 14.5 40.28125 
Q 14.5 37.15625 16.890625 35.375 
Q 19.28125 33.59375 26.515625 31.984375 
L 29.59375 31.296875 
Q 39.15625 29.25 43.1875 25.515625 
Q 47.21875 21.78125 47.21875 15.09375 
Q 47.21875 7.46875 41.1875 3.015625 
Q 35.15625 -1.421875 24.609375 -1.421875 
Q 20.21875 -1.421875 15.453125 -0.5625 
Q 10.6875 0.296875 5.421875 2 
L 5.421875 11.28125 
Q 10.40625 8.6875 15.234375 7.390625 
Q 20.0625 6.109375 24.8125 6.109375 
Q 31.15625 6.109375 34.5625 8.28125 
Q 37.984375 10.453125 37.984375 14.40625 
Q 37.984375 18.0625 35.515625 20.015625 
Q 33.0625 21.96875 24.703125 23.78125 
L 21.578125 24.515625 
Q 13.234375 26.265625 9.515625 29.90625 
Q 5.8125 33.546875 5.8125 39.890625 
Q 5.8125 47.609375 11.28125 51.796875 
Q 16.75 56 26.8125 56 
Q 31.78125 56 36.171875 55.265625 
Q 40.578125 54.546875 44.28125 53.078125 
z
" id="DejaVuSans-115"/>
     <path d="M 48.78125 52.59375 
L 48.78125 44.1875 
Q 44.96875 46.296875 41.140625 47.34375 
Q 37.3125 48.390625 33.40625 48.390625 
Q 24.65625 48.390625 19.8125 42.84375 
Q 14.984375 37.3125 14.984375 27.296875 
Q 14.984375 17.28125 19.8125 11.734375 
Q 24.65625 6.203125 33.40625 6.203125 
Q 37.3125 6.203125 41.140625 7.25 
Q 44.96875 8.296875 48.78125 10.40625 
L 48.78125 2.09375 
Q 45.015625 0.34375 40.984375 -0.53125 
Q 36.96875 -1.421875 32.421875 -1.421875 
Q 20.0625 -1.421875 12.78125 6.34375 
Q 5.515625 14.109375 5.515625 27.296875 
Q 5.515625 40.671875 12.859375 48.328125 
Q 20.21875 56 33.015625 56 
Q 37.15625 56 41.109375 55.140625 
Q 45.0625 54.296875 48.78125 52.59375 
z
" id="DejaVuSans-99"/>
     <path d="M 45.40625 27.984375 
Q 45.40625 37.75 41.375 43.109375 
Q 37.359375 48.484375 30.078125 48.484375 
Q 22.859375 48.484375 18.828125 43.109375 
Q 14.796875 37.75 14.796875 27.984375 
Q 14.796875 18.265625 18.828125 12.890625 
Q 22.859375 7.515625 30.078125 7.515625 
Q 37.359375 7.515625 41.375 12.890625 
Q 45.40625 18.265625 45.40625 27.984375 
z
M 54.390625 6.78125 
Q 54.390625 -7.171875 48.1875 -13.984375 
Q 42 -20.796875 29.203125 -20.796875 
Q 24.46875 -20.796875 20.265625 -20.09375 
Q 16.0625 -19.390625 12.109375 -17.921875 
L 12.109375 -9.1875 
Q 16.0625 -11.328125 19.921875 -12.34375 
Q 23.78125 -13.375 27.78125 -13.375 
Q 36.625 -13.375 41.015625 -8.765625 
Q 45.40625 -4.15625 45.40625 5.171875 
L 45.40625 9.625 
Q 42.625 4.78125 38.28125 2.390625 
Q 33.9375 0 27.875 0 
Q 17.828125 0 11.671875 7.65625 
Q 5.515625 15.328125 5.515625 27.984375 
Q 5.515625 40.671875 11.671875 48.328125 
Q 17.828125 56 27.875 56 
Q 33.9375 56 38.28125 53.609375 
Q 42.625 51.21875 45.40625 46.390625 
L 45.40625 54.6875 
L 54.390625 54.6875 
z
" id="DejaVuSans-103"/>
    </defs>
    <g transform="translate(20.120625 15.122625)scale(0.12 -0.12)">
     <use xlink:href="#DejaVuSans-32"/>
     <use x="31.787109" xlink:href="#DejaVuSans-32"/>
     <use x="63.574219" xlink:href="#DejaVuSans-32"/>
     <use x="95.361328" xlink:href="#DejaVuSans-32"/>
     <use x="127.148438" xlink:href="#DejaVuSans-32"/>
     <use x="158.935547" xlink:href="#DejaVuSans-32"/>
     <use x="190.722656" xlink:href="#DejaVuSans-32"/>
     <use x="222.509766" xlink:href="#DejaVuSans-32"/>
     <use x="254.296875" xlink:href="#DejaVuSans-32"/>
     <use x="286.083984" xlink:href="#DejaVuSans-32"/>
     <use x="317.871094" xlink:href="#DejaVuSans-32"/>
     <use x="349.658203" xlink:href="#DejaVuSans-32"/>
     <use x="381.445312" xlink:href="#DejaVuSans-32"/>
     <use x="413.232422" xlink:href="#DejaVuSans-32"/>
     <use x="445.019531" xlink:href="#DejaVuSans-32"/>
     <use x="476.806641" xlink:href="#DejaVuSans-32"/>
     <use x="508.59375" xlink:href="#DejaVuSans-32"/>
     <use x="540.380859" xlink:href="#DejaVuSans-32"/>
     <use x="572.167969" xlink:href="#DejaVuSans-32"/>
     <use x="603.955078" xlink:href="#DejaVuSans-32"/>
     <use x="635.742188" xlink:href="#DejaVuSans-32"/>
     <use x="667.529297" xlink:href="#DejaVuSans-32"/>
     <use x="699.316406" xlink:href="#DejaVuSans-32"/>
     <use x="731.103516" xlink:href="#DejaVuSans-32"/>
     <use x="762.890625" xlink:href="#DejaVuSans-32"/>
     <use x="794.677734" xlink:href="#DejaVuSans-83"/>
     <use x="858.154297" xlink:href="#DejaVuSans-101"/>
     <use x="919.677734" xlink:href="#DejaVuSans-114"/>
     <use x="960.791016" xlink:href="#DejaVuSans-117"/>
     <use x="1024.169922" xlink:href="#DejaVuSans-109"/>
     <use x="1121.582031" xlink:href="#DejaVuSans-32"/>
     <use x="1153.369141" xlink:href="#DejaVuSans-116"/>
     <use x="1192.578125" xlink:href="#DejaVuSans-111"/>
     <use x="1253.759766" xlink:href="#DejaVuSans-116"/>
     <use x="1292.96875" xlink:href="#DejaVuSans-97"/>
     <use x="1354.248047" xlink:href="#DejaVuSans-108"/>
     <use x="1382.03125" xlink:href="#DejaVuSans-32"/>
     <use x="1413.818359" xlink:href="#DejaVuSans-116"/>
     <use x="1453.027344" xlink:href="#DejaVuSans-101"/>
     <use x="1514.550781" xlink:href="#DejaVuSans-115"/>
     <use x="1566.650391" xlink:href="#DejaVuSans-116"/>
     <use x="1605.859375" xlink:href="#DejaVuSans-111"/>
     <use x="1667.041016" xlink:href="#DejaVuSans-115"/>
     <use x="1719.140625" xlink:href="#DejaVuSans-116"/>
     <use x="1758.349609" xlink:href="#DejaVuSans-101"/>
     <use x="1819.873047" xlink:href="#DejaVuSans-114"/>
     <use x="1858.736328" xlink:href="#DejaVuSans-111"/>
     <use x="1919.917969" xlink:href="#DejaVuSans-110"/>
     <use x="1983.296875" xlink:href="#DejaVuSans-101"/>
     <use x="2044.820312" xlink:href="#DejaVuSans-32"/>
     <use x="2076.607422" xlink:href="#DejaVuSans-99"/>
     <use x="2131.587891" xlink:href="#DejaVuSans-104"/>
     <use x="2194.966797" xlink:href="#DejaVuSans-97"/>
     <use x="2256.246094" xlink:href="#DejaVuSans-110"/>
     <use x="2319.625" xlink:href="#DejaVuSans-103"/>
     <use x="2383.101562" xlink:href="#DejaVuSans-101"/>
     <use x="2444.625" xlink:href="#DejaVuSans-115"/>
     <use x="2496.724609" xlink:href="#DejaVuSans-32"/>
     <use x="2528.511719" xlink:href="#DejaVuSans-32"/>
     <use x="2560.298828" xlink:href="#DejaVuSans-32"/>
     <use x="2592.085938" xlink:href="#DejaVuSans-32"/>
     <use x="2623.873047" xlink:href="#DejaVuSans-32"/>
     <use x="2655.660156" xlink:href="#DejaVuSans-32"/>
     <use x="2687.447266" xlink:href="#DejaVuSans-32"/>
     <use x="2719.234375" xlink:href="#DejaVuSans-32"/>
     <use x="2751.021484" xlink:href="#DejaVuSans-32"/>
     <use x="2782.808594" xlink:href="#DejaVuSans-32"/>
     <use x="2814.595703" xlink:href="#DejaVuSans-32"/>
     <use x="2846.382812" xlink:href="#DejaVuSans-32"/>
     <use x="2878.169922" xlink:href="#DejaVuSans-32"/>
     <use x="2909.957031" xlink:href="#DejaVuSans-32"/>
     <use x="2941.744141" xlink:href="#DejaVuSans-32"/>
     <use x="2973.53125" xlink:href="#DejaVuSans-32"/>
     <use x="3005.318359" xlink:href="#DejaVuSans-32"/>
     <use x="3037.105469" xlink:href="#DejaVuSans-32"/>
     <use x="3068.892578" xlink:href="#DejaVuSans-32"/>
     <use x="3100.679688" xlink:href="#DejaVuSans-32"/>
     <use x="3132.466797" xlink:href="#DejaVuSans-32"/>
     <use x="3164.253906" xlink:href="#DejaVuSans-32"/>
     <use x="3196.041016" xlink:href="#DejaVuSans-32"/>
     <use x="3227.828125" xlink:href="#DejaVuSans-32"/>
     <use x="3259.615234" xlink:href="#DejaVuSans-32"/>
     <use x="3291.402344" xlink:href="#DejaVuSans-32"/>
     <use x="3323.189453" xlink:href="#DejaVuSans-32"/>
    </g>
    <!--            in laboratory animals during the experiment           -->
    <defs>
     <path d="M 48.6875 27.296875 
Q 48.6875 37.203125 44.609375 42.84375 
Q 40.53125 48.484375 33.40625 48.484375 
Q 26.265625 48.484375 22.1875 42.84375 
Q 18.109375 37.203125 18.109375 27.296875 
Q 18.109375 17.390625 22.1875 11.75 
Q 26.265625 6.109375 33.40625 6.109375 
Q 40.53125 6.109375 44.609375 11.75 
Q 48.6875 17.390625 48.6875 27.296875 
z
M 18.109375 46.390625 
Q 20.953125 51.265625 25.265625 53.625 
Q 29.59375 56 35.59375 56 
Q 45.5625 56 51.78125 48.09375 
Q 58.015625 40.1875 58.015625 27.296875 
Q 58.015625 14.40625 51.78125 6.484375 
Q 45.5625 -1.421875 35.59375 -1.421875 
Q 29.59375 -1.421875 25.265625 0.953125 
Q 20.953125 3.328125 18.109375 8.203125 
L 18.109375 0 
L 9.078125 0 
L 9.078125 75.984375 
L 18.109375 75.984375 
z
" id="DejaVuSans-98"/>
     <path d="M 45.40625 46.390625 
L 45.40625 75.984375 
L 54.390625 75.984375 
L 54.390625 0 
L 45.40625 0 
L 45.40625 8.203125 
Q 42.578125 3.328125 38.25 0.953125 
Q 33.9375 -1.421875 27.875 -1.421875 
Q 17.96875 -1.421875 11.734375 6.484375 
Q 5.515625 14.40625 5.515625 27.296875 
Q 5.515625 40.1875 11.734375 48.09375 
Q 17.96875 56 27.875 56 
Q 33.9375 56 38.25 53.625 
Q 42.578125 51.265625 45.40625 46.390625 
z
M 14.796875 27.296875 
Q 14.796875 17.390625 18.875 11.75 
Q 22.953125 6.109375 30.078125 6.109375 
Q 37.203125 6.109375 41.296875 11.75 
Q 45.40625 17.390625 45.40625 27.296875 
Q 45.40625 37.203125 41.296875 42.84375 
Q 37.203125 48.484375 30.078125 48.484375 
Q 22.953125 48.484375 18.875 42.84375 
Q 14.796875 37.203125 14.796875 27.296875 
z
" id="DejaVuSans-100"/>
    </defs>
    <g transform="translate(48.216563 28.56)scale(0.12 -0.12)">
     <use xlink:href="#DejaVuSans-32"/>
     <use x="31.787109" xlink:href="#DejaVuSans-32"/>
     <use x="63.574219" xlink:href="#DejaVuSans-32"/>
     <use x="95.361328" xlink:href="#DejaVuSans-32"/>
     <use x="127.148438" xlink:href="#DejaVuSans-32"/>
     <use x="158.935547" xlink:href="#DejaVuSans-32"/>
     <use x="190.722656" xlink:href="#DejaVuSans-32"/>
     <use x="222.509766" xlink:href="#DejaVuSans-32"/>
     <use x="254.296875" xlink:href="#DejaVuSans-32"/>
     <use x="286.083984" xlink:href="#DejaVuSans-32"/>
     <use x="317.871094" xlink:href="#DejaVuSans-32"/>
     <use x="349.658203" xlink:href="#DejaVuSans-105"/>
     <use x="377.441406" xlink:href="#DejaVuSans-110"/>
     <use x="440.820312" xlink:href="#DejaVuSans-32"/>
     <use x="472.607422" xlink:href="#DejaVuSans-108"/>
     <use x="500.390625" xlink:href="#DejaVuSans-97"/>
     <use x="561.669922" xlink:href="#DejaVuSans-98"/>
     <use x="625.146484" xlink:href="#DejaVuSans-111"/>
     <use x="686.328125" xlink:href="#DejaVuSans-114"/>
     <use x="727.441406" xlink:href="#DejaVuSans-97"/>
     <use x="788.720703" xlink:href="#DejaVuSans-116"/>
     <use x="827.929688" xlink:href="#DejaVuSans-111"/>
     <use x="889.111328" xlink:href="#DejaVuSans-114"/>
     <use x="930.224609" xlink:href="#DejaVuSans-121"/>
     <use x="989.404297" xlink:href="#DejaVuSans-32"/>
     <use x="1021.191406" xlink:href="#DejaVuSans-97"/>
     <use x="1082.470703" xlink:href="#DejaVuSans-110"/>
     <use x="1145.849609" xlink:href="#DejaVuSans-105"/>
     <use x="1173.632812" xlink:href="#DejaVuSans-109"/>
     <use x="1271.044922" xlink:href="#DejaVuSans-97"/>
     <use x="1332.324219" xlink:href="#DejaVuSans-108"/>
     <use x="1360.107422" xlink:href="#DejaVuSans-115"/>
     <use x="1412.207031" xlink:href="#DejaVuSans-32"/>
     <use x="1443.994141" xlink:href="#DejaVuSans-100"/>
     <use x="1507.470703" xlink:href="#DejaVuSans-117"/>
     <use x="1570.849609" xlink:href="#DejaVuSans-114"/>
     <use x="1611.962891" xlink:href="#DejaVuSans-105"/>
     <use x="1639.746094" xlink:href="#DejaVuSans-110"/>
     <use x="1703.125" xlink:href="#DejaVuSans-103"/>
     <use x="1766.601562" xlink:href="#DejaVuSans-32"/>
     <use x="1798.388672" xlink:href="#DejaVuSans-116"/>
     <use x="1837.597656" xlink:href="#DejaVuSans-104"/>
     <use x="1900.976562" xlink:href="#DejaVuSans-101"/>
     <use x="1962.5" xlink:href="#DejaVuSans-32"/>
     <use x="1994.287109" xlink:href="#DejaVuSans-101"/>
     <use x="2054.060547" xlink:href="#DejaVuSans-120"/>
     <use x="2113.240234" xlink:href="#DejaVuSans-112"/>
     <use x="2176.716797" xlink:href="#DejaVuSans-101"/>
     <use x="2238.240234" xlink:href="#DejaVuSans-114"/>
     <use x="2279.353516" xlink:href="#DejaVuSans-105"/>
     <use x="2307.136719" xlink:href="#DejaVuSans-109"/>
     <use x="2404.548828" xlink:href="#DejaVuSans-101"/>
     <use x="2466.072266" xlink:href="#DejaVuSans-110"/>
     <use x="2529.451172" xlink:href="#DejaVuSans-116"/>
     <use x="2568.660156" xlink:href="#DejaVuSans-32"/>
     <use x="2600.447266" xlink:href="#DejaVuSans-32"/>
     <use x="2632.234375" xlink:href="#DejaVuSans-32"/>
     <use x="2664.021484" xlink:href="#DejaVuSans-32"/>
     <use x="2695.808594" xlink:href="#DejaVuSans-32"/>
     <use x="2727.595703" xlink:href="#DejaVuSans-32"/>
     <use x="2759.382812" xlink:href="#DejaVuSans-32"/>
     <use x="2791.169922" xlink:href="#DejaVuSans-32"/>
     <use x="2822.957031" xlink:href="#DejaVuSans-32"/>
     <use x="2854.744141" xlink:href="#DejaVuSans-32"/>
    </g>
   </g>
  </g>
 </g>
 <defs>
  <clipPath id="p6f4c3957ce">
   <rect height="217.44" width="334.8" x="54" y="34.56"/>
  </clipPath>
 </defs>
</svg>
