<?xml version="1.0" encoding="utf-8" standalone="no"?>
<!DOCTYPE svg PUBLIC "-//W3C//DTD SVG 1.1//EN"
  "http://www.w3.org/Graphics/SVG/1.1/DTD/svg11.dtd">
<!-- Created with matplotlib (https://matplotlib.org/) -->
<svg height="288pt" version="1.1" viewBox="0 0 432 288" width="432pt" xmlns="http://www.w3.org/2000/svg" xmlns:xlink="http://www.w3.org/1999/xlink">
 <defs>
  <style type="text/css">
*{stroke-linecap:butt;stroke-linejoin:round;}
  </style>
 </defs>
 <g id="figure_1">
  <g id="patch_1">
   <path d="M 0 288 
L 432 288 
L 432 0 
L 0 0 
z
" style="fill:#ffffff;"/>
  </g>
  <g id="axes_1">
   <g id="patch_2">
    <path d="M 54 252 
L 388.8 252 
L 388.8 34.56 
L 54 34.56 
z
" style="fill:#ffffff;"/>
   </g>
   <g id="patch_3">
    <path clip-path="url(#pdcf89a6df5)" d="M 62.37 125.183482 
L 129.33 125.183482 
L 129.33 100.160581 
L 62.37 100.160581 
L 62.37 125.183482 
z
" style="fill:#df9c20;stroke:#4c4c4c;stroke-linejoin:miter;stroke-width:1.5;"/>
   </g>
   <g id="patch_4">
    <path clip-path="url(#pdcf89a6df5)" d="M 146.07 207.916861 
L 213.03 207.916861 
L 213.03 188.755179 
L 146.07 188.755179 
L 146.07 207.916861 
z
" style="fill:#df9c20;stroke:#4c4c4c;stroke-linejoin:miter;stroke-width:1.5;"/>
   </g>
   <g id="patch_5">
    <path clip-path="url(#pdcf89a6df5)" d="M 229.77 204.760819 
L 296.73 204.760819 
L 296.73 200.703051 
L 229.77 200.703051 
L 229.77 204.760819 
z
" style="fill:#df9c20;stroke:#4c4c4c;stroke-linejoin:miter;stroke-width:1.5;"/>
   </g>
   <g id="patch_6">
    <path clip-path="url(#pdcf89a6df5)" d="M 313.47 237.899257 
L 380.43 237.899257 
L 380.43 211.298334 
L 313.47 211.298334 
L 313.47 237.899257 
z
" style="fill:#df9c20;stroke:#4c4c4c;stroke-linejoin:miter;stroke-width:1.5;"/>
   </g>
   <g id="matplotlib.axis_1">
    <g id="xtick_1">
     <g id="line2d_1">
      <defs>
       <path d="M 0 0 
L 0 3.5 
" id="m3dc52b9ebf" style="stroke:#000000;stroke-width:0.8;"/>
      </defs>
      <g>
       <use style="stroke:#000000;stroke-width:0.8;" x="95.85" xlink:href="#m3dc52b9ebf" y="252"/>
      </g>
     </g>
     <g id="text_1">
      <!-- Initial -->
      <defs>
       <path d="M 9.8125 72.90625 
L 19.671875 72.90625 
L 19.671875 0 
L 9.8125 0 
z
" id="DejaVuSans-73"/>
       <path d="M 54.890625 33.015625 
L 54.890625 0 
L 45.90625 0 
L 45.90625 32.71875 
Q 45.90625 40.484375 42.875 44.328125 
Q 39.84375 48.1875 33.796875 48.1875 
Q 26.515625 48.1875 22.3125 43.546875 
Q 18.109375 38.921875 18.109375 30.90625 
L 18.109375 0 
L 9.078125 0 
L 9.078125 54.6875 
L 18.109375 54.6875 
L 18.109375 46.1875 
Q 21.34375 51.125 25.703125 53.5625 
Q 30.078125 56 35.796875 56 
Q 45.21875 56 50.046875 50.171875 
Q 54.890625 44.34375 54.890625 33.015625 
z
" id="DejaVuSans-110"/>
       <path d="M 9.421875 54.6875 
L 18.40625 54.6875 
L 18.40625 0 
L 9.421875 0 
z
M 9.421875 75.984375 
L 18.40625 75.984375 
L 18.40625 64.59375 
L 9.421875 64.59375 
z
" id="DejaVuSans-105"/>
       <path d="M 18.3125 70.21875 
L 18.3125 54.6875 
L 36.8125 54.6875 
L 36.8125 47.703125 
L 18.3125 47.703125 
L 18.3125 18.015625 
Q 18.3125 11.328125 20.140625 9.421875 
Q 21.96875 7.515625 27.59375 7.515625 
L 36.8125 7.515625 
L 36.8125 0 
L 27.59375 0 
Q 17.1875 0 13.234375 3.875 
Q 9.28125 7.765625 9.28125 18.015625 
L 9.28125 47.703125 
L 2.6875 47.703125 
L 2.6875 54.6875 
L 9.28125 54.6875 
L 9.28125 70.21875 
z
" id="DejaVuSans-116"/>
       <path d="M 34.28125 27.484375 
Q 23.390625 27.484375 19.1875 25 
Q 14.984375 22.515625 14.984375 16.5 
Q 14.984375 11.71875 18.140625 8.90625 
Q 21.296875 6.109375 26.703125 6.109375 
Q 34.1875 6.109375 38.703125 11.40625 
Q 43.21875 16.703125 43.21875 25.484375 
L 43.21875 27.484375 
z
M 52.203125 31.203125 
L 52.203125 0 
L 43.21875 0 
L 43.21875 8.296875 
Q 40.140625 3.328125 35.546875 0.953125 
Q 30.953125 -1.421875 24.3125 -1.421875 
Q 15.921875 -1.421875 10.953125 3.296875 
Q 6 8.015625 6 15.921875 
Q 6 25.140625 12.171875 29.828125 
Q 18.359375 34.515625 30.609375 34.515625 
L 43.21875 34.515625 
L 43.21875 35.40625 
Q 43.21875 41.609375 39.140625 45 
Q 35.0625 48.390625 27.6875 48.390625 
Q 23 48.390625 18.546875 47.265625 
Q 14.109375 46.140625 10.015625 43.890625 
L 10.015625 52.203125 
Q 14.9375 54.109375 19.578125 55.046875 
Q 24.21875 56 28.609375 56 
Q 40.484375 56 46.34375 49.84375 
Q 52.203125 43.703125 52.203125 31.203125 
z
" id="DejaVuSans-97"/>
       <path d="M 9.421875 75.984375 
L 18.40625 75.984375 
L 18.40625 0 
L 9.421875 0 
z
" id="DejaVuSans-108"/>
      </defs>
      <g transform="translate(82.014844 266.598437)scale(0.1 -0.1)">
       <use xlink:href="#DejaVuSans-73"/>
       <use x="29.492188" xlink:href="#DejaVuSans-110"/>
       <use x="92.871094" xlink:href="#DejaVuSans-105"/>
       <use x="120.654297" xlink:href="#DejaVuSans-116"/>
       <use x="159.863281" xlink:href="#DejaVuSans-105"/>
       <use x="187.646484" xlink:href="#DejaVuSans-97"/>
       <use x="248.925781" xlink:href="#DejaVuSans-108"/>
      </g>
     </g>
    </g>
    <g id="xtick_2">
     <g id="line2d_2">
      <g>
       <use style="stroke:#000000;stroke-width:0.8;" x="179.55" xlink:href="#m3dc52b9ebf" y="252"/>
      </g>
     </g>
     <g id="text_2">
      <!-- 7 -->
      <defs>
       <path d="M 8.203125 72.90625 
L 55.078125 72.90625 
L 55.078125 68.703125 
L 28.609375 0 
L 18.3125 0 
L 43.21875 64.59375 
L 8.203125 64.59375 
z
" id="DejaVuSans-55"/>
      </defs>
      <g transform="translate(176.36875 266.598437)scale(0.1 -0.1)">
       <use xlink:href="#DejaVuSans-55"/>
      </g>
     </g>
    </g>
    <g id="xtick_3">
     <g id="line2d_3">
      <g>
       <use style="stroke:#000000;stroke-width:0.8;" x="263.25" xlink:href="#m3dc52b9ebf" y="252"/>
      </g>
     </g>
     <g id="text_3">
      <!-- 14 -->
      <defs>
       <path d="M 12.40625 8.296875 
L 28.515625 8.296875 
L 28.515625 63.921875 
L 10.984375 60.40625 
L 10.984375 69.390625 
L 28.421875 72.90625 
L 38.28125 72.90625 
L 38.28125 8.296875 
L 54.390625 8.296875 
L 54.390625 0 
L 12.40625 0 
z
" id="DejaVuSans-49"/>
       <path d="M 37.796875 64.3125 
L 12.890625 25.390625 
L 37.796875 25.390625 
z
M 35.203125 72.90625 
L 47.609375 72.90625 
L 47.609375 25.390625 
L 58.015625 25.390625 
L 58.015625 17.1875 
L 47.609375 17.1875 
L 47.609375 0 
L 37.796875 0 
L 37.796875 17.1875 
L 4.890625 17.1875 
L 4.890625 26.703125 
z
" id="DejaVuSans-52"/>
      </defs>
      <g transform="translate(256.8875 266.598437)scale(0.1 -0.1)">
       <use xlink:href="#DejaVuSans-49"/>
       <use x="63.623047" xlink:href="#DejaVuSans-52"/>
      </g>
     </g>
    </g>
    <g id="xtick_4">
     <g id="line2d_4">
      <g>
       <use style="stroke:#000000;stroke-width:0.8;" x="346.95" xlink:href="#m3dc52b9ebf" y="252"/>
      </g>
     </g>
     <g id="text_4">
      <!-- 21 -->
      <defs>
       <path d="M 19.1875 8.296875 
L 53.609375 8.296875 
L 53.609375 0 
L 7.328125 0 
L 7.328125 8.296875 
Q 12.9375 14.109375 22.625 23.890625 
Q 32.328125 33.6875 34.8125 36.53125 
Q 39.546875 41.84375 41.421875 45.53125 
Q 43.3125 49.21875 43.3125 52.78125 
Q 43.3125 58.59375 39.234375 62.25 
Q 35.15625 65.921875 28.609375 65.921875 
Q 23.96875 65.921875 18.8125 64.3125 
Q 13.671875 62.703125 7.8125 59.421875 
L 7.8125 69.390625 
Q 13.765625 71.78125 18.9375 73 
Q 24.125 74.21875 28.421875 74.21875 
Q 39.75 74.21875 46.484375 68.546875 
Q 53.21875 62.890625 53.21875 53.421875 
Q 53.21875 48.921875 51.53125 44.890625 
Q 49.859375 40.875 45.40625 35.40625 
Q 44.1875 33.984375 37.640625 27.21875 
Q 31.109375 20.453125 19.1875 8.296875 
z
" id="DejaVuSans-50"/>
      </defs>
      <g transform="translate(340.5875 266.598437)scale(0.1 -0.1)">
       <use xlink:href="#DejaVuSans-50"/>
       <use x="63.623047" xlink:href="#DejaVuSans-49"/>
      </g>
     </g>
    </g>
    <g id="text_5">
     <!-- Day of the experiment -->
     <defs>
      <path d="M 19.671875 64.796875 
L 19.671875 8.109375 
L 31.59375 8.109375 
Q 46.6875 8.109375 53.6875 14.9375 
Q 60.6875 21.78125 60.6875 36.53125 
Q 60.6875 51.171875 53.6875 57.984375 
Q 46.6875 64.796875 31.59375 64.796875 
z
M 9.8125 72.90625 
L 30.078125 72.90625 
Q 51.265625 72.90625 61.171875 64.09375 
Q 71.09375 55.28125 71.09375 36.53125 
Q 71.09375 17.671875 61.125 8.828125 
Q 51.171875 0 30.078125 0 
L 9.8125 0 
z
" id="DejaVuSans-68"/>
      <path d="M 32.171875 -5.078125 
Q 28.375 -14.84375 24.75 -17.8125 
Q 21.140625 -20.796875 15.09375 -20.796875 
L 7.90625 -20.796875 
L 7.90625 -13.28125 
L 13.1875 -13.28125 
Q 16.890625 -13.28125 18.9375 -11.515625 
Q 21 -9.765625 23.484375 -3.21875 
L 25.09375 0.875 
L 2.984375 54.6875 
L 12.5 54.6875 
L 29.59375 11.921875 
L 46.6875 54.6875 
L 56.203125 54.6875 
z
" id="DejaVuSans-121"/>
      <path id="DejaVuSans-32"/>
      <path d="M 30.609375 48.390625 
Q 23.390625 48.390625 19.1875 42.75 
Q 14.984375 37.109375 14.984375 27.296875 
Q 14.984375 17.484375 19.15625 11.84375 
Q 23.34375 6.203125 30.609375 6.203125 
Q 37.796875 6.203125 41.984375 11.859375 
Q 46.1875 17.53125 46.1875 27.296875 
Q 46.1875 37.015625 41.984375 42.703125 
Q 37.796875 48.390625 30.609375 48.390625 
z
M 30.609375 56 
Q 42.328125 56 49.015625 48.375 
Q 55.71875 40.765625 55.71875 27.296875 
Q 55.71875 13.875 49.015625 6.21875 
Q 42.328125 -1.421875 30.609375 -1.421875 
Q 18.84375 -1.421875 12.171875 6.21875 
Q 5.515625 13.875 5.515625 27.296875 
Q 5.515625 40.765625 12.171875 48.375 
Q 18.84375 56 30.609375 56 
z
" id="DejaVuSans-111"/>
      <path d="M 37.109375 75.984375 
L 37.109375 68.5 
L 28.515625 68.5 
Q 23.6875 68.5 21.796875 66.546875 
Q 19.921875 64.59375 19.921875 59.515625 
L 19.921875 54.6875 
L 34.71875 54.6875 
L 34.71875 47.703125 
L 19.921875 47.703125 
L 19.921875 0 
L 10.890625 0 
L 10.890625 47.703125 
L 2.296875 47.703125 
L 2.296875 54.6875 
L 10.890625 54.6875 
L 10.890625 58.5 
Q 10.890625 67.625 15.140625 71.796875 
Q 19.390625 75.984375 28.609375 75.984375 
z
" id="DejaVuSans-102"/>
      <path d="M 54.890625 33.015625 
L 54.890625 0 
L 45.90625 0 
L 45.90625 32.71875 
Q 45.90625 40.484375 42.875 44.328125 
Q 39.84375 48.1875 33.796875 48.1875 
Q 26.515625 48.1875 22.3125 43.546875 
Q 18.109375 38.921875 18.109375 30.90625 
L 18.109375 0 
L 9.078125 0 
L 9.078125 75.984375 
L 18.109375 75.984375 
L 18.109375 46.1875 
Q 21.34375 51.125 25.703125 53.5625 
Q 30.078125 56 35.796875 56 
Q 45.21875 56 50.046875 50.171875 
Q 54.890625 44.34375 54.890625 33.015625 
z
" id="DejaVuSans-104"/>
      <path d="M 56.203125 29.59375 
L 56.203125 25.203125 
L 14.890625 25.203125 
Q 15.484375 15.921875 20.484375 11.0625 
Q 25.484375 6.203125 34.421875 6.203125 
Q 39.59375 6.203125 44.453125 7.46875 
Q 49.3125 8.734375 54.109375 11.28125 
L 54.109375 2.78125 
Q 49.265625 0.734375 44.1875 -0.34375 
Q 39.109375 -1.421875 33.890625 -1.421875 
Q 20.796875 -1.421875 13.15625 6.1875 
Q 5.515625 13.8125 5.515625 26.8125 
Q 5.515625 40.234375 12.765625 48.109375 
Q 20.015625 56 32.328125 56 
Q 43.359375 56 49.78125 48.890625 
Q 56.203125 41.796875 56.203125 29.59375 
z
M 47.21875 32.234375 
Q 47.125 39.59375 43.09375 43.984375 
Q 39.0625 48.390625 32.421875 48.390625 
Q 24.90625 48.390625 20.390625 44.140625 
Q 15.875 39.890625 15.1875 32.171875 
z
" id="DejaVuSans-101"/>
      <path d="M 54.890625 54.6875 
L 35.109375 28.078125 
L 55.90625 0 
L 45.3125 0 
L 29.390625 21.484375 
L 13.484375 0 
L 2.875 0 
L 24.125 28.609375 
L 4.6875 54.6875 
L 15.28125 54.6875 
L 29.78125 35.203125 
L 44.28125 54.6875 
z
" id="DejaVuSans-120"/>
      <path d="M 18.109375 8.203125 
L 18.109375 -20.796875 
L 9.078125 -20.796875 
L 9.078125 54.6875 
L 18.109375 54.6875 
L 18.109375 46.390625 
Q 20.953125 51.265625 25.265625 53.625 
Q 29.59375 56 35.59375 56 
Q 45.5625 56 51.78125 48.09375 
Q 58.015625 40.1875 58.015625 27.296875 
Q 58.015625 14.40625 51.78125 6.484375 
Q 45.5625 -1.421875 35.59375 -1.421875 
Q 29.59375 -1.421875 25.265625 0.953125 
Q 20.953125 3.328125 18.109375 8.203125 
z
M 48.6875 27.296875 
Q 48.6875 37.203125 44.609375 42.84375 
Q 40.53125 48.484375 33.40625 48.484375 
Q 26.265625 48.484375 22.1875 42.84375 
Q 18.109375 37.203125 18.109375 27.296875 
Q 18.109375 17.390625 22.1875 11.75 
Q 26.265625 6.109375 33.40625 6.109375 
Q 40.53125 6.109375 44.609375 11.75 
Q 48.6875 17.390625 48.6875 27.296875 
z
" id="DejaVuSans-112"/>
      <path d="M 41.109375 46.296875 
Q 39.59375 47.171875 37.8125 47.578125 
Q 36.03125 48 33.890625 48 
Q 26.265625 48 22.1875 43.046875 
Q 18.109375 38.09375 18.109375 28.8125 
L 18.109375 0 
L 9.078125 0 
L 9.078125 54.6875 
L 18.109375 54.6875 
L 18.109375 46.1875 
Q 20.953125 51.171875 25.484375 53.578125 
Q 30.03125 56 36.53125 56 
Q 37.453125 56 38.578125 55.875 
Q 39.703125 55.765625 41.0625 55.515625 
z
" id="DejaVuSans-114"/>
      <path d="M 52 44.1875 
Q 55.375 50.25 60.0625 53.125 
Q 64.75 56 71.09375 56 
Q 79.640625 56 84.28125 50.015625 
Q 88.921875 44.046875 88.921875 33.015625 
L 88.921875 0 
L 79.890625 0 
L 79.890625 32.71875 
Q 79.890625 40.578125 77.09375 44.375 
Q 74.3125 48.1875 68.609375 48.1875 
Q 61.625 48.1875 57.5625 43.546875 
Q 53.515625 38.921875 53.515625 30.90625 
L 53.515625 0 
L 44.484375 0 
L 44.484375 32.71875 
Q 44.484375 40.625 41.703125 44.40625 
Q 38.921875 48.1875 33.109375 48.1875 
Q 26.21875 48.1875 22.15625 43.53125 
Q 18.109375 38.875 18.109375 30.90625 
L 18.109375 0 
L 9.078125 0 
L 9.078125 54.6875 
L 18.109375 54.6875 
L 18.109375 46.1875 
Q 21.1875 51.21875 25.484375 53.609375 
Q 29.78125 56 35.6875 56 
Q 41.65625 56 45.828125 52.96875 
Q 50 49.953125 52 44.1875 
z
" id="DejaVuSans-109"/>
     </defs>
     <g transform="translate(165.014844 280.276563)scale(0.1 -0.1)">
      <use xlink:href="#DejaVuSans-68"/>
      <use x="77.001953" xlink:href="#DejaVuSans-97"/>
      <use x="138.28125" xlink:href="#DejaVuSans-121"/>
      <use x="197.460938" xlink:href="#DejaVuSans-32"/>
      <use x="229.248047" xlink:href="#DejaVuSans-111"/>
      <use x="290.429688" xlink:href="#DejaVuSans-102"/>
      <use x="325.634766" xlink:href="#DejaVuSans-32"/>
      <use x="357.421875" xlink:href="#DejaVuSans-116"/>
      <use x="396.630859" xlink:href="#DejaVuSans-104"/>
      <use x="460.009766" xlink:href="#DejaVuSans-101"/>
      <use x="521.533203" xlink:href="#DejaVuSans-32"/>
      <use x="553.320312" xlink:href="#DejaVuSans-101"/>
      <use x="613.09375" xlink:href="#DejaVuSans-120"/>
      <use x="672.273438" xlink:href="#DejaVuSans-112"/>
      <use x="735.75" xlink:href="#DejaVuSans-101"/>
      <use x="797.273438" xlink:href="#DejaVuSans-114"/>
      <use x="838.386719" xlink:href="#DejaVuSans-105"/>
      <use x="866.169922" xlink:href="#DejaVuSans-109"/>
      <use x="963.582031" xlink:href="#DejaVuSans-101"/>
      <use x="1025.105469" xlink:href="#DejaVuSans-110"/>
      <use x="1088.484375" xlink:href="#DejaVuSans-116"/>
     </g>
    </g>
   </g>
   <g id="matplotlib.axis_2">
    <g id="ytick_1">
     <g id="line2d_5">
      <defs>
       <path d="M 0 0 
L -3.5 0 
" id="mecd68621c6" style="stroke:#000000;stroke-width:0.8;"/>
      </defs>
      <g>
       <use style="stroke:#000000;stroke-width:0.8;" x="54" xlink:href="#mecd68621c6" y="214.905239"/>
      </g>
     </g>
     <g id="text_6">
      <!-- 1200 -->
      <defs>
       <path d="M 31.78125 66.40625 
Q 24.171875 66.40625 20.328125 58.90625 
Q 16.5 51.421875 16.5 36.375 
Q 16.5 21.390625 20.328125 13.890625 
Q 24.171875 6.390625 31.78125 6.390625 
Q 39.453125 6.390625 43.28125 13.890625 
Q 47.125 21.390625 47.125 36.375 
Q 47.125 51.421875 43.28125 58.90625 
Q 39.453125 66.40625 31.78125 66.40625 
z
M 31.78125 74.21875 
Q 44.046875 74.21875 50.515625 64.515625 
Q 56.984375 54.828125 56.984375 36.375 
Q 56.984375 17.96875 50.515625 8.265625 
Q 44.046875 -1.421875 31.78125 -1.421875 
Q 19.53125 -1.421875 13.0625 8.265625 
Q 6.59375 17.96875 6.59375 36.375 
Q 6.59375 54.828125 13.0625 64.515625 
Q 19.53125 74.21875 31.78125 74.21875 
z
" id="DejaVuSans-48"/>
      </defs>
      <g transform="translate(21.55 218.704457)scale(0.1 -0.1)">
       <use xlink:href="#DejaVuSans-49"/>
       <use x="63.623047" xlink:href="#DejaVuSans-50"/>
       <use x="127.246094" xlink:href="#DejaVuSans-48"/>
       <use x="190.869141" xlink:href="#DejaVuSans-48"/>
      </g>
     </g>
    </g>
    <g id="ytick_2">
     <g id="line2d_6">
      <g>
       <use style="stroke:#000000;stroke-width:0.8;" x="54" xlink:href="#mecd68621c6" y="169.818929"/>
      </g>
     </g>
     <g id="text_7">
      <!-- 1400 -->
      <g transform="translate(21.55 173.618148)scale(0.1 -0.1)">
       <use xlink:href="#DejaVuSans-49"/>
       <use x="63.623047" xlink:href="#DejaVuSans-52"/>
       <use x="127.246094" xlink:href="#DejaVuSans-48"/>
       <use x="190.869141" xlink:href="#DejaVuSans-48"/>
      </g>
     </g>
    </g>
    <g id="ytick_3">
     <g id="line2d_7">
      <g>
       <use style="stroke:#000000;stroke-width:0.8;" x="54" xlink:href="#mecd68621c6" y="124.732619"/>
      </g>
     </g>
     <g id="text_8">
      <!-- 1600 -->
      <defs>
       <path d="M 33.015625 40.375 
Q 26.375 40.375 22.484375 35.828125 
Q 18.609375 31.296875 18.609375 23.390625 
Q 18.609375 15.53125 22.484375 10.953125 
Q 26.375 6.390625 33.015625 6.390625 
Q 39.65625 6.390625 43.53125 10.953125 
Q 47.40625 15.53125 47.40625 23.390625 
Q 47.40625 31.296875 43.53125 35.828125 
Q 39.65625 40.375 33.015625 40.375 
z
M 52.59375 71.296875 
L 52.59375 62.3125 
Q 48.875 64.0625 45.09375 64.984375 
Q 41.3125 65.921875 37.59375 65.921875 
Q 27.828125 65.921875 22.671875 59.328125 
Q 17.53125 52.734375 16.796875 39.40625 
Q 19.671875 43.65625 24.015625 45.921875 
Q 28.375 48.1875 33.59375 48.1875 
Q 44.578125 48.1875 50.953125 41.515625 
Q 57.328125 34.859375 57.328125 23.390625 
Q 57.328125 12.15625 50.6875 5.359375 
Q 44.046875 -1.421875 33.015625 -1.421875 
Q 20.359375 -1.421875 13.671875 8.265625 
Q 6.984375 17.96875 6.984375 36.375 
Q 6.984375 53.65625 15.1875 63.9375 
Q 23.390625 74.21875 37.203125 74.21875 
Q 40.921875 74.21875 44.703125 73.484375 
Q 48.484375 72.75 52.59375 71.296875 
z
" id="DejaVuSans-54"/>
      </defs>
      <g transform="translate(21.55 128.531838)scale(0.1 -0.1)">
       <use xlink:href="#DejaVuSans-49"/>
       <use x="63.623047" xlink:href="#DejaVuSans-54"/>
       <use x="127.246094" xlink:href="#DejaVuSans-48"/>
       <use x="190.869141" xlink:href="#DejaVuSans-48"/>
      </g>
     </g>
    </g>
    <g id="ytick_4">
     <g id="line2d_8">
      <g>
       <use style="stroke:#000000;stroke-width:0.8;" x="54" xlink:href="#mecd68621c6" y="79.64631"/>
      </g>
     </g>
     <g id="text_9">
      <!-- 1800 -->
      <defs>
       <path d="M 31.78125 34.625 
Q 24.75 34.625 20.71875 30.859375 
Q 16.703125 27.09375 16.703125 20.515625 
Q 16.703125 13.921875 20.71875 10.15625 
Q 24.75 6.390625 31.78125 6.390625 
Q 38.8125 6.390625 42.859375 10.171875 
Q 46.921875 13.96875 46.921875 20.515625 
Q 46.921875 27.09375 42.890625 30.859375 
Q 38.875 34.625 31.78125 34.625 
z
M 21.921875 38.8125 
Q 15.578125 40.375 12.03125 44.71875 
Q 8.5 49.078125 8.5 55.328125 
Q 8.5 64.0625 14.71875 69.140625 
Q 20.953125 74.21875 31.78125 74.21875 
Q 42.671875 74.21875 48.875 69.140625 
Q 55.078125 64.0625 55.078125 55.328125 
Q 55.078125 49.078125 51.53125 44.71875 
Q 48 40.375 41.703125 38.8125 
Q 48.828125 37.15625 52.796875 32.3125 
Q 56.78125 27.484375 56.78125 20.515625 
Q 56.78125 9.90625 50.3125 4.234375 
Q 43.84375 -1.421875 31.78125 -1.421875 
Q 19.734375 -1.421875 13.25 4.234375 
Q 6.78125 9.90625 6.78125 20.515625 
Q 6.78125 27.484375 10.78125 32.3125 
Q 14.796875 37.15625 21.921875 38.8125 
z
M 18.3125 54.390625 
Q 18.3125 48.734375 21.84375 45.5625 
Q 25.390625 42.390625 31.78125 42.390625 
Q 38.140625 42.390625 41.71875 45.5625 
Q 45.3125 48.734375 45.3125 54.390625 
Q 45.3125 60.0625 41.71875 63.234375 
Q 38.140625 66.40625 31.78125 66.40625 
Q 25.390625 66.40625 21.84375 63.234375 
Q 18.3125 60.0625 18.3125 54.390625 
z
" id="DejaVuSans-56"/>
      </defs>
      <g transform="translate(21.55 83.445528)scale(0.1 -0.1)">
       <use xlink:href="#DejaVuSans-49"/>
       <use x="63.623047" xlink:href="#DejaVuSans-56"/>
       <use x="127.246094" xlink:href="#DejaVuSans-48"/>
       <use x="190.869141" xlink:href="#DejaVuSans-48"/>
      </g>
     </g>
    </g>
    <g id="ytick_5">
     <g id="line2d_9">
      <g>
       <use style="stroke:#000000;stroke-width:0.8;" x="54" xlink:href="#mecd68621c6" y="34.56"/>
      </g>
     </g>
     <g id="text_10">
      <!-- 2000 -->
      <g transform="translate(21.55 38.359219)scale(0.1 -0.1)">
       <use xlink:href="#DejaVuSans-50"/>
       <use x="63.623047" xlink:href="#DejaVuSans-48"/>
       <use x="127.246094" xlink:href="#DejaVuSans-48"/>
       <use x="190.869141" xlink:href="#DejaVuSans-48"/>
      </g>
     </g>
    </g>
    <g id="text_11">
     <!-- Gray value -->
     <defs>
      <path d="M 59.515625 10.40625 
L 59.515625 29.984375 
L 43.40625 29.984375 
L 43.40625 38.09375 
L 69.28125 38.09375 
L 69.28125 6.78125 
Q 63.578125 2.734375 56.6875 0.65625 
Q 49.8125 -1.421875 42 -1.421875 
Q 24.90625 -1.421875 15.25 8.5625 
Q 5.609375 18.5625 5.609375 36.375 
Q 5.609375 54.25 15.25 64.234375 
Q 24.90625 74.21875 42 74.21875 
Q 49.125 74.21875 55.546875 72.453125 
Q 61.96875 70.703125 67.390625 67.28125 
L 67.390625 56.78125 
Q 61.921875 61.421875 55.765625 63.765625 
Q 49.609375 66.109375 42.828125 66.109375 
Q 29.4375 66.109375 22.71875 58.640625 
Q 16.015625 51.171875 16.015625 36.375 
Q 16.015625 21.625 22.71875 14.15625 
Q 29.4375 6.6875 42.828125 6.6875 
Q 48.046875 6.6875 52.140625 7.59375 
Q 56.25 8.5 59.515625 10.40625 
z
" id="DejaVuSans-71"/>
      <path d="M 2.984375 54.6875 
L 12.5 54.6875 
L 29.59375 8.796875 
L 46.6875 54.6875 
L 56.203125 54.6875 
L 35.6875 0 
L 23.484375 0 
z
" id="DejaVuSans-118"/>
      <path d="M 8.5 21.578125 
L 8.5 54.6875 
L 17.484375 54.6875 
L 17.484375 21.921875 
Q 17.484375 14.15625 20.5 10.265625 
Q 23.53125 6.390625 29.59375 6.390625 
Q 36.859375 6.390625 41.078125 11.03125 
Q 45.3125 15.671875 45.3125 23.6875 
L 45.3125 54.6875 
L 54.296875 54.6875 
L 54.296875 0 
L 45.3125 0 
L 45.3125 8.40625 
Q 42.046875 3.421875 37.71875 1 
Q 33.40625 -1.421875 27.6875 -1.421875 
Q 18.265625 -1.421875 13.375 4.4375 
Q 8.5 10.296875 8.5 21.578125 
z
M 31.109375 56 
z
" id="DejaVuSans-117"/>
     </defs>
     <g transform="translate(15.470312 170.48)rotate(-90)scale(0.1 -0.1)">
      <use xlink:href="#DejaVuSans-71"/>
      <use x="77.490234" xlink:href="#DejaVuSans-114"/>
      <use x="118.603516" xlink:href="#DejaVuSans-97"/>
      <use x="179.882812" xlink:href="#DejaVuSans-121"/>
      <use x="239.0625" xlink:href="#DejaVuSans-32"/>
      <use x="270.849609" xlink:href="#DejaVuSans-118"/>
      <use x="330.029297" xlink:href="#DejaVuSans-97"/>
      <use x="391.308594" xlink:href="#DejaVuSans-108"/>
      <use x="419.091797" xlink:href="#DejaVuSans-117"/>
      <use x="482.470703" xlink:href="#DejaVuSans-101"/>
     </g>
    </g>
   </g>
   <g id="LineCollection_1">
    <path clip-path="url(#pdcf89a6df5)" d="M 95.85 45.831577 
L 263.25 45.831577 
" style="fill:none;stroke:#333333;stroke-width:2;"/>
   </g>
   <g id="LineCollection_2">
    <path clip-path="url(#pdcf89a6df5)" d="M 95.85 57.103155 
L 346.95 57.103155 
" style="fill:none;stroke:#333333;stroke-width:2;"/>
   </g>
   <g id="line2d_10">
    <path clip-path="url(#pdcf89a6df5)" d="M 95.85 125.183482 
L 95.85 125.183482 
" style="fill:none;stroke:#4c4c4c;stroke-linecap:square;stroke-width:1.5;"/>
   </g>
   <g id="line2d_11">
    <path clip-path="url(#pdcf89a6df5)" d="M 95.85 100.160581 
L 95.85 71.305342 
" style="fill:none;stroke:#4c4c4c;stroke-linecap:square;stroke-width:1.5;"/>
   </g>
   <g id="line2d_12">
    <path clip-path="url(#pdcf89a6df5)" d="M 79.11 125.183482 
L 112.59 125.183482 
" style="fill:none;stroke:#4c4c4c;stroke-linecap:square;stroke-width:1.5;"/>
   </g>
   <g id="line2d_13">
    <path clip-path="url(#pdcf89a6df5)" d="M 79.11 71.305342 
L 112.59 71.305342 
" style="fill:none;stroke:#4c4c4c;stroke-linecap:square;stroke-width:1.5;"/>
   </g>
   <g id="line2d_14">
    <defs>
     <path d="M 0 3.535534 
L 2.12132 0 
L 0 -3.535534 
L -2.12132 0 
z
" id="m959d50ac90" style="stroke:#4c4c4c;stroke-linejoin:miter;"/>
    </defs>
    <g clip-path="url(#pdcf89a6df5)">
     <use style="fill:#4c4c4c;stroke:#4c4c4c;stroke-linejoin:miter;" x="95.85" xlink:href="#m959d50ac90" y="163.957709"/>
    </g>
   </g>
   <g id="line2d_15">
    <path clip-path="url(#pdcf89a6df5)" d="M 179.55 207.916861 
L 179.55 209.945745 
" style="fill:none;stroke:#4c4c4c;stroke-linecap:square;stroke-width:1.5;"/>
   </g>
   <g id="line2d_16">
    <path clip-path="url(#pdcf89a6df5)" d="M 179.55 188.755179 
L 179.55 185.148274 
" style="fill:none;stroke:#4c4c4c;stroke-linecap:square;stroke-width:1.5;"/>
   </g>
   <g id="line2d_17">
    <path clip-path="url(#pdcf89a6df5)" d="M 162.81 209.945745 
L 196.29 209.945745 
" style="fill:none;stroke:#4c4c4c;stroke-linecap:square;stroke-width:1.5;"/>
   </g>
   <g id="line2d_18">
    <path clip-path="url(#pdcf89a6df5)" d="M 162.81 185.148274 
L 196.29 185.148274 
" style="fill:none;stroke:#4c4c4c;stroke-linecap:square;stroke-width:1.5;"/>
   </g>
   <g id="line2d_19"/>
   <g id="line2d_20">
    <path clip-path="url(#pdcf89a6df5)" d="M 263.25 204.760819 
L 263.25 204.760819 
" style="fill:none;stroke:#4c4c4c;stroke-linecap:square;stroke-width:1.5;"/>
   </g>
   <g id="line2d_21">
    <path clip-path="url(#pdcf89a6df5)" d="M 263.25 200.703051 
L 263.25 200.703051 
" style="fill:none;stroke:#4c4c4c;stroke-linecap:square;stroke-width:1.5;"/>
   </g>
   <g id="line2d_22">
    <path clip-path="url(#pdcf89a6df5)" d="M 246.51 204.760819 
L 279.99 204.760819 
" style="fill:none;stroke:#4c4c4c;stroke-linecap:square;stroke-width:1.5;"/>
   </g>
   <g id="line2d_23">
    <path clip-path="url(#pdcf89a6df5)" d="M 246.51 200.703051 
L 279.99 200.703051 
" style="fill:none;stroke:#4c4c4c;stroke-linecap:square;stroke-width:1.5;"/>
   </g>
   <g id="line2d_24">
    <g clip-path="url(#pdcf89a6df5)">
     <use style="fill:#4c4c4c;stroke:#4c4c4c;stroke-linejoin:miter;" x="263.25" xlink:href="#m959d50ac90" y="217.835849"/>
     <use style="fill:#4c4c4c;stroke:#4c4c4c;stroke-linejoin:miter;" x="263.25" xlink:href="#m959d50ac90" y="188.980611"/>
    </g>
   </g>
   <g id="line2d_25">
    <path clip-path="url(#pdcf89a6df5)" d="M 346.95 237.899257 
L 346.95 242.182456 
" style="fill:none;stroke:#4c4c4c;stroke-linecap:square;stroke-width:1.5;"/>
   </g>
   <g id="line2d_26">
    <path clip-path="url(#pdcf89a6df5)" d="M 346.95 211.298334 
L 346.95 203.859093 
" style="fill:none;stroke:#4c4c4c;stroke-linecap:square;stroke-width:1.5;"/>
   </g>
   <g id="line2d_27">
    <path clip-path="url(#pdcf89a6df5)" d="M 330.21 242.182456 
L 363.69 242.182456 
" style="fill:none;stroke:#4c4c4c;stroke-linecap:square;stroke-width:1.5;"/>
   </g>
   <g id="line2d_28">
    <path clip-path="url(#pdcf89a6df5)" d="M 330.21 203.859093 
L 363.69 203.859093 
" style="fill:none;stroke:#4c4c4c;stroke-linecap:square;stroke-width:1.5;"/>
   </g>
   <g id="line2d_29"/>
   <g id="line2d_30">
    <path clip-path="url(#pdcf89a6df5)" d="M 62.37 108.276116 
L 129.33 108.276116 
" style="fill:none;stroke:#4c4c4c;stroke-linecap:square;stroke-width:1.5;"/>
   </g>
   <g id="line2d_31">
    <path clip-path="url(#pdcf89a6df5)" d="M 146.07 200.703051 
L 213.03 200.703051 
" style="fill:none;stroke:#4c4c4c;stroke-linecap:square;stroke-width:1.5;"/>
   </g>
   <g id="line2d_32">
    <path clip-path="url(#pdcf89a6df5)" d="M 229.77 202.506504 
L 296.73 202.506504 
" style="fill:none;stroke:#4c4c4c;stroke-linecap:square;stroke-width:1.5;"/>
   </g>
   <g id="line2d_33">
    <path clip-path="url(#pdcf89a6df5)" d="M 313.47 218.512143 
L 380.43 218.512143 
" style="fill:none;stroke:#4c4c4c;stroke-linecap:square;stroke-width:1.5;"/>
   </g>
   <g id="patch_7">
    <path d="M 54 252 
L 54 34.56 
" style="fill:none;stroke:#000000;stroke-linecap:square;stroke-linejoin:miter;stroke-width:0.8;"/>
   </g>
   <g id="patch_8">
    <path d="M 388.8 252 
L 388.8 34.56 
" style="fill:none;stroke:#000000;stroke-linecap:square;stroke-linejoin:miter;stroke-width:0.8;"/>
   </g>
   <g id="patch_9">
    <path d="M 54 252 
L 388.8 252 
" style="fill:none;stroke:#000000;stroke-linecap:square;stroke-linejoin:miter;stroke-width:0.8;"/>
   </g>
   <g id="patch_10">
    <path d="M 54 34.56 
L 388.8 34.56 
" style="fill:none;stroke:#000000;stroke-linecap:square;stroke-linejoin:miter;stroke-width:0.8;"/>
   </g>
   <g id="text_12">
    <!-- * -->
    <defs>
     <path d="M 47.015625 60.890625 
L 29.5 51.421875 
L 47.015625 41.890625 
L 44.1875 37.109375 
L 27.78125 47.015625 
L 27.78125 28.609375 
L 22.21875 28.609375 
L 22.21875 47.015625 
L 5.8125 37.109375 
L 2.984375 41.890625 
L 20.515625 51.421875 
L 2.984375 60.890625 
L 5.8125 65.71875 
L 22.21875 55.8125 
L 22.21875 74.21875 
L 27.78125 74.21875 
L 27.78125 55.8125 
L 44.1875 65.71875 
z
" id="DejaVuSans-42"/>
    </defs>
    <g transform="translate(259.065 45.831577)scale(0.12 -0.12)">
     <use xlink:href="#DejaVuSans-42"/>
    </g>
   </g>
   <g id="text_13">
    <!-- **** -->
    <g transform="translate(334.395 57.103155)scale(0.12 -0.12)">
     <use xlink:href="#DejaVuSans-42"/>
     <use x="50" xlink:href="#DejaVuSans-42"/>
     <use x="100" xlink:href="#DejaVuSans-42"/>
     <use x="150" xlink:href="#DejaVuSans-42"/>
    </g>
   </g>
   <g id="text_14">
    <!-- ะก                                                                                                               -->
    <defs>
     <path d="M 64.40625 67.28125 
L 64.40625 56.890625 
Q 59.421875 61.53125 53.78125 63.8125 
Q 48.140625 66.109375 41.796875 66.109375 
Q 29.296875 66.109375 22.65625 58.46875 
Q 16.015625 50.828125 16.015625 36.375 
Q 16.015625 21.96875 22.65625 14.328125 
Q 29.296875 6.6875 41.796875 6.6875 
Q 48.140625 6.6875 53.78125 8.984375 
Q 59.421875 11.28125 64.40625 15.921875 
L 64.40625 5.609375 
Q 59.234375 2.09375 53.4375 0.328125 
Q 47.65625 -1.421875 41.21875 -1.421875 
Q 24.65625 -1.421875 15.125 8.703125 
Q 5.609375 18.84375 5.609375 36.375 
Q 5.609375 53.953125 15.125 64.078125 
Q 24.65625 74.21875 41.21875 74.21875 
Q 47.75 74.21875 53.53125 72.484375 
Q 59.328125 70.75 64.40625 67.28125 
z
" id="DejaVuSans-1057"/>
    </defs>
    <g transform="translate(7.454063 1.68525)scale(0.12 -0.12)">
     <use xlink:href="#DejaVuSans-1057"/>
     <use x="69.824219" xlink:href="#DejaVuSans-32"/>
     <use x="101.611328" xlink:href="#DejaVuSans-32"/>
     <use x="133.398438" xlink:href="#DejaVuSans-32"/>
     <use x="165.185547" xlink:href="#DejaVuSans-32"/>
     <use x="196.972656" xlink:href="#DejaVuSans-32"/>
     <use x="228.759766" xlink:href="#DejaVuSans-32"/>
     <use x="260.546875" xlink:href="#DejaVuSans-32"/>
     <use x="292.333984" xlink:href="#DejaVuSans-32"/>
     <use x="324.121094" xlink:href="#DejaVuSans-32"/>
     <use x="355.908203" xlink:href="#DejaVuSans-32"/>
     <use x="387.695312" xlink:href="#DejaVuSans-32"/>
     <use x="419.482422" xlink:href="#DejaVuSans-32"/>
     <use x="451.269531" xlink:href="#DejaVuSans-32"/>
     <use x="483.056641" xlink:href="#DejaVuSans-32"/>
     <use x="514.84375" xlink:href="#DejaVuSans-32"/>
     <use x="546.630859" xlink:href="#DejaVuSans-32"/>
     <use x="578.417969" xlink:href="#DejaVuSans-32"/>
     <use x="610.205078" xlink:href="#DejaVuSans-32"/>
     <use x="641.992188" xlink:href="#DejaVuSans-32"/>
     <use x="673.779297" xlink:href="#DejaVuSans-32"/>
     <use x="705.566406" xlink:href="#DejaVuSans-32"/>
     <use x="737.353516" xlink:href="#DejaVuSans-32"/>
     <use x="769.140625" xlink:href="#DejaVuSans-32"/>
     <use x="800.927734" xlink:href="#DejaVuSans-32"/>
     <use x="832.714844" xlink:href="#DejaVuSans-32"/>
     <use x="864.501953" xlink:href="#DejaVuSans-32"/>
     <use x="896.289062" xlink:href="#DejaVuSans-32"/>
     <use x="928.076172" xlink:href="#DejaVuSans-32"/>
     <use x="959.863281" xlink:href="#DejaVuSans-32"/>
     <use x="991.650391" xlink:href="#DejaVuSans-32"/>
     <use x="1023.4375" xlink:href="#DejaVuSans-32"/>
     <use x="1055.224609" xlink:href="#DejaVuSans-32"/>
     <use x="1087.011719" xlink:href="#DejaVuSans-32"/>
     <use x="1118.798828" xlink:href="#DejaVuSans-32"/>
     <use x="1150.585938" xlink:href="#DejaVuSans-32"/>
     <use x="1182.373047" xlink:href="#DejaVuSans-32"/>
     <use x="1214.160156" xlink:href="#DejaVuSans-32"/>
     <use x="1245.947266" xlink:href="#DejaVuSans-32"/>
     <use x="1277.734375" xlink:href="#DejaVuSans-32"/>
     <use x="1309.521484" xlink:href="#DejaVuSans-32"/>
     <use x="1341.308594" xlink:href="#DejaVuSans-32"/>
     <use x="1373.095703" xlink:href="#DejaVuSans-32"/>
     <use x="1404.882812" xlink:href="#DejaVuSans-32"/>
     <use x="1436.669922" xlink:href="#DejaVuSans-32"/>
     <use x="1468.457031" xlink:href="#DejaVuSans-32"/>
     <use x="1500.244141" xlink:href="#DejaVuSans-32"/>
     <use x="1532.03125" xlink:href="#DejaVuSans-32"/>
     <use x="1563.818359" xlink:href="#DejaVuSans-32"/>
     <use x="1595.605469" xlink:href="#DejaVuSans-32"/>
     <use x="1627.392578" xlink:href="#DejaVuSans-32"/>
     <use x="1659.179688" xlink:href="#DejaVuSans-32"/>
     <use x="1690.966797" xlink:href="#DejaVuSans-32"/>
     <use x="1722.753906" xlink:href="#DejaVuSans-32"/>
     <use x="1754.541016" xlink:href="#DejaVuSans-32"/>
     <use x="1786.328125" xlink:href="#DejaVuSans-32"/>
     <use x="1818.115234" xlink:href="#DejaVuSans-32"/>
     <use x="1849.902344" xlink:href="#DejaVuSans-32"/>
     <use x="1881.689453" xlink:href="#DejaVuSans-32"/>
     <use x="1913.476562" xlink:href="#DejaVuSans-32"/>
     <use x="1945.263672" xlink:href="#DejaVuSans-32"/>
     <use x="1977.050781" xlink:href="#DejaVuSans-32"/>
     <use x="2008.837891" xlink:href="#DejaVuSans-32"/>
     <use x="2040.625" xlink:href="#DejaVuSans-32"/>
     <use x="2072.412109" xlink:href="#DejaVuSans-32"/>
     <use x="2104.199219" xlink:href="#DejaVuSans-32"/>
     <use x="2135.986328" xlink:href="#DejaVuSans-32"/>
     <use x="2167.773438" xlink:href="#DejaVuSans-32"/>
     <use x="2199.560547" xlink:href="#DejaVuSans-32"/>
     <use x="2231.347656" xlink:href="#DejaVuSans-32"/>
     <use x="2263.134766" xlink:href="#DejaVuSans-32"/>
     <use x="2294.921875" xlink:href="#DejaVuSans-32"/>
     <use x="2326.708984" xlink:href="#DejaVuSans-32"/>
     <use x="2358.496094" xlink:href="#DejaVuSans-32"/>
     <use x="2390.283203" xlink:href="#DejaVuSans-32"/>
     <use x="2422.070312" xlink:href="#DejaVuSans-32"/>
     <use x="2453.857422" xlink:href="#DejaVuSans-32"/>
     <use x="2485.644531" xlink:href="#DejaVuSans-32"/>
     <use x="2517.431641" xlink:href="#DejaVuSans-32"/>
     <use x="2549.21875" xlink:href="#DejaVuSans-32"/>
     <use x="2581.005859" xlink:href="#DejaVuSans-32"/>
     <use x="2612.792969" xlink:href="#DejaVuSans-32"/>
     <use x="2644.580078" xlink:href="#DejaVuSans-32"/>
     <use x="2676.367188" xlink:href="#DejaVuSans-32"/>
     <use x="2708.154297" xlink:href="#DejaVuSans-32"/>
     <use x="2739.941406" xlink:href="#DejaVuSans-32"/>
     <use x="2771.728516" xlink:href="#DejaVuSans-32"/>
     <use x="2803.515625" xlink:href="#DejaVuSans-32"/>
     <use x="2835.302734" xlink:href="#DejaVuSans-32"/>
     <use x="2867.089844" xlink:href="#DejaVuSans-32"/>
     <use x="2898.876953" xlink:href="#DejaVuSans-32"/>
     <use x="2930.664062" xlink:href="#DejaVuSans-32"/>
     <use x="2962.451172" xlink:href="#DejaVuSans-32"/>
     <use x="2994.238281" xlink:href="#DejaVuSans-32"/>
     <use x="3026.025391" xlink:href="#DejaVuSans-32"/>
     <use x="3057.8125" xlink:href="#DejaVuSans-32"/>
     <use x="3089.599609" xlink:href="#DejaVuSans-32"/>
     <use x="3121.386719" xlink:href="#DejaVuSans-32"/>
     <use x="3153.173828" xlink:href="#DejaVuSans-32"/>
     <use x="3184.960938" xlink:href="#DejaVuSans-32"/>
     <use x="3216.748047" xlink:href="#DejaVuSans-32"/>
     <use x="3248.535156" xlink:href="#DejaVuSans-32"/>
     <use x="3280.322266" xlink:href="#DejaVuSans-32"/>
     <use x="3312.109375" xlink:href="#DejaVuSans-32"/>
     <use x="3343.896484" xlink:href="#DejaVuSans-32"/>
     <use x="3375.683594" xlink:href="#DejaVuSans-32"/>
     <use x="3407.470703" xlink:href="#DejaVuSans-32"/>
     <use x="3439.257812" xlink:href="#DejaVuSans-32"/>
     <use x="3471.044922" xlink:href="#DejaVuSans-32"/>
     <use x="3502.832031" xlink:href="#DejaVuSans-32"/>
     <use x="3534.619141" xlink:href="#DejaVuSans-32"/>
    </g>
    <!-- Gray value analysis  -->
    <defs>
     <path d="M 44.28125 53.078125 
L 44.28125 44.578125 
Q 40.484375 46.53125 36.375 47.5 
Q 32.28125 48.484375 27.875 48.484375 
Q 21.1875 48.484375 17.84375 46.4375 
Q 14.5 44.390625 14.5 40.28125 
Q 14.5 37.15625 16.890625 35.375 
Q 19.28125 33.59375 26.515625 31.984375 
L 29.59375 31.296875 
Q 39.15625 29.25 43.1875 25.515625 
Q 47.21875 21.78125 47.21875 15.09375 
Q 47.21875 7.46875 41.1875 3.015625 
Q 35.15625 -1.421875 24.609375 -1.421875 
Q 20.21875 -1.421875 15.453125 -0.5625 
Q 10.6875 0.296875 5.421875 2 
L 5.421875 11.28125 
Q 10.40625 8.6875 15.234375 7.390625 
Q 20.0625 6.109375 24.8125 6.109375 
Q 31.15625 6.109375 34.5625 8.28125 
Q 37.984375 10.453125 37.984375 14.40625 
Q 37.984375 18.0625 35.515625 20.015625 
Q 33.0625 21.96875 24.703125 23.78125 
L 21.578125 24.515625 
Q 13.234375 26.265625 9.515625 29.90625 
Q 5.8125 33.546875 5.8125 39.890625 
Q 5.8125 47.609375 11.28125 51.796875 
Q 16.75 56 26.8125 56 
Q 31.78125 56 36.171875 55.265625 
Q 40.578125 54.546875 44.28125 53.078125 
z
" id="DejaVuSans-115"/>
    </defs>
    <g transform="translate(160.65375 15.122625)scale(0.12 -0.12)">
     <use xlink:href="#DejaVuSans-71"/>
     <use x="77.490234" xlink:href="#DejaVuSans-114"/>
     <use x="118.603516" xlink:href="#DejaVuSans-97"/>
     <use x="179.882812" xlink:href="#DejaVuSans-121"/>
     <use x="239.0625" xlink:href="#DejaVuSans-32"/>
     <use x="270.849609" xlink:href="#DejaVuSans-118"/>
     <use x="330.029297" xlink:href="#DejaVuSans-97"/>
     <use x="391.308594" xlink:href="#DejaVuSans-108"/>
     <use x="419.091797" xlink:href="#DejaVuSans-117"/>
     <use x="482.470703" xlink:href="#DejaVuSans-101"/>
     <use x="543.994141" xlink:href="#DejaVuSans-32"/>
     <use x="575.78125" xlink:href="#DejaVuSans-97"/>
     <use x="637.060547" xlink:href="#DejaVuSans-110"/>
     <use x="700.439453" xlink:href="#DejaVuSans-97"/>
     <use x="761.71875" xlink:href="#DejaVuSans-108"/>
     <use x="789.501953" xlink:href="#DejaVuSans-121"/>
     <use x="848.681641" xlink:href="#DejaVuSans-115"/>
     <use x="900.78125" xlink:href="#DejaVuSans-105"/>
     <use x="928.564453" xlink:href="#DejaVuSans-115"/>
     <use x="980.664062" xlink:href="#DejaVuSans-32"/>
    </g>
    <!--  of corpora cavernosa in laboratory animals -->
    <defs>
     <path d="M 48.78125 52.59375 
L 48.78125 44.1875 
Q 44.96875 46.296875 41.140625 47.34375 
Q 37.3125 48.390625 33.40625 48.390625 
Q 24.65625 48.390625 19.8125 42.84375 
Q 14.984375 37.3125 14.984375 27.296875 
Q 14.984375 17.28125 19.8125 11.734375 
Q 24.65625 6.203125 33.40625 6.203125 
Q 37.3125 6.203125 41.140625 7.25 
Q 44.96875 8.296875 48.78125 10.40625 
L 48.78125 2.09375 
Q 45.015625 0.34375 40.984375 -0.53125 
Q 36.96875 -1.421875 32.421875 -1.421875 
Q 20.0625 -1.421875 12.78125 6.34375 
Q 5.515625 14.109375 5.515625 27.296875 
Q 5.515625 40.671875 12.859375 48.328125 
Q 20.21875 56 33.015625 56 
Q 37.15625 56 41.109375 55.140625 
Q 45.0625 54.296875 48.78125 52.59375 
z
" id="DejaVuSans-99"/>
     <path d="M 48.6875 27.296875 
Q 48.6875 37.203125 44.609375 42.84375 
Q 40.53125 48.484375 33.40625 48.484375 
Q 26.265625 48.484375 22.1875 42.84375 
Q 18.109375 37.203125 18.109375 27.296875 
Q 18.109375 17.390625 22.1875 11.75 
Q 26.265625 6.109375 33.40625 6.109375 
Q 40.53125 6.109375 44.609375 11.75 
Q 48.6875 17.390625 48.6875 27.296875 
z
M 18.109375 46.390625 
Q 20.953125 51.265625 25.265625 53.625 
Q 29.59375 56 35.59375 56 
Q 45.5625 56 51.78125 48.09375 
Q 58.015625 40.1875 58.015625 27.296875 
Q 58.015625 14.40625 51.78125 6.484375 
Q 45.5625 -1.421875 35.59375 -1.421875 
Q 29.59375 -1.421875 25.265625 0.953125 
Q 20.953125 3.328125 18.109375 8.203125 
L 18.109375 0 
L 9.078125 0 
L 9.078125 75.984375 
L 18.109375 75.984375 
z
" id="DejaVuSans-98"/>
    </defs>
    <g transform="translate(90.319688 28.56)scale(0.12 -0.12)">
     <use xlink:href="#DejaVuSans-32"/>
     <use x="31.787109" xlink:href="#DejaVuSans-111"/>
     <use x="92.96875" xlink:href="#DejaVuSans-102"/>
     <use x="128.173828" xlink:href="#DejaVuSans-32"/>
     <use x="159.960938" xlink:href="#DejaVuSans-99"/>
     <use x="214.941406" xlink:href="#DejaVuSans-111"/>
     <use x="276.123047" xlink:href="#DejaVuSans-114"/>
     <use x="317.236328" xlink:href="#DejaVuSans-112"/>
     <use x="380.712891" xlink:href="#DejaVuSans-111"/>
     <use x="441.894531" xlink:href="#DejaVuSans-114"/>
     <use x="483.007812" xlink:href="#DejaVuSans-97"/>
     <use x="544.287109" xlink:href="#DejaVuSans-32"/>
     <use x="576.074219" xlink:href="#DejaVuSans-99"/>
     <use x="631.054688" xlink:href="#DejaVuSans-97"/>
     <use x="692.333984" xlink:href="#DejaVuSans-118"/>
     <use x="751.513672" xlink:href="#DejaVuSans-101"/>
     <use x="813.037109" xlink:href="#DejaVuSans-114"/>
     <use x="852.400391" xlink:href="#DejaVuSans-110"/>
     <use x="915.779297" xlink:href="#DejaVuSans-111"/>
     <use x="976.960938" xlink:href="#DejaVuSans-115"/>
     <use x="1029.060547" xlink:href="#DejaVuSans-97"/>
     <use x="1090.339844" xlink:href="#DejaVuSans-32"/>
     <use x="1122.126953" xlink:href="#DejaVuSans-105"/>
     <use x="1149.910156" xlink:href="#DejaVuSans-110"/>
     <use x="1213.289062" xlink:href="#DejaVuSans-32"/>
     <use x="1245.076172" xlink:href="#DejaVuSans-108"/>
     <use x="1272.859375" xlink:href="#DejaVuSans-97"/>
     <use x="1334.138672" xlink:href="#DejaVuSans-98"/>
     <use x="1397.615234" xlink:href="#DejaVuSans-111"/>
     <use x="1458.796875" xlink:href="#DejaVuSans-114"/>
     <use x="1499.910156" xlink:href="#DejaVuSans-97"/>
     <use x="1561.189453" xlink:href="#DejaVuSans-116"/>
     <use x="1600.398438" xlink:href="#DejaVuSans-111"/>
     <use x="1661.580078" xlink:href="#DejaVuSans-114"/>
     <use x="1702.693359" xlink:href="#DejaVuSans-121"/>
     <use x="1761.873047" xlink:href="#DejaVuSans-32"/>
     <use x="1793.660156" xlink:href="#DejaVuSans-97"/>
     <use x="1854.939453" xlink:href="#DejaVuSans-110"/>
     <use x="1918.318359" xlink:href="#DejaVuSans-105"/>
     <use x="1946.101562" xlink:href="#DejaVuSans-109"/>
     <use x="2043.513672" xlink:href="#DejaVuSans-97"/>
     <use x="2104.792969" xlink:href="#DejaVuSans-108"/>
     <use x="2132.576172" xlink:href="#DejaVuSans-115"/>
    </g>
   </g>
  </g>
 </g>
 <defs>
  <clipPath id="pdcf89a6df5">
   <rect height="217.44" width="334.8" x="54" y="34.56"/>
  </clipPath>
 </defs>
</svg>
